<svg width="16" height="17" viewBox="0 0 16 17" fill="none" xmlns="http://www.w3.org/2000/svg">
<path d="M15.4935 14.5878L14.3999 11.3062H13.1999L13.8663 14.5062H2.13348L2.79988 11.3062H1.59988L0.505481 14.5878C0.227881 15.423 0.719881 16.1062 1.59988 16.1062H14.3999C15.2799 16.1062 15.7719 15.423 15.4935 14.5878ZM11.9999 4.1062C11.9999 3.04534 11.5785 2.02792 10.8283 1.27777C10.0782 0.527629 9.06075 0.106201 7.99988 0.106201C6.93902 0.106201 5.9216 0.527629 5.17145 1.27777C4.42131 2.02792 3.99988 3.04534 3.99988 4.1062C3.99988 7.9262 7.99988 12.1062 7.99988 12.1062C7.99988 12.1062 11.9999 7.9262 11.9999 4.1062ZM5.83988 4.1542C5.83988 2.9614 6.80628 1.995 7.99988 1.995C8.57264 1.995 9.12195 2.22253 9.52695 2.62753C9.93195 3.03254 10.1595 3.58184 10.1595 4.1546C10.1595 4.72736 9.93195 5.27667 9.52695 5.68167C9.12195 6.08667 8.57264 6.3142 7.99988 6.3142C7.42701 6.3142 6.87761 6.08663 6.47253 5.68155C6.06745 5.27647 5.83988 4.72707 5.83988 4.1542Z" fill="black"/>
</svg>
