<svg width="16" height="17" viewBox="0 0 16 17" fill="none" xmlns="http://www.w3.org/2000/svg">
<path d="M10 6.1062H9V12.1062H10V6.1062Z" fill="#979797"/>
<path d="M7 6.1062H6V12.1062H7V6.1062Z" fill="#979797"/>
<path d="M14 3.1062V4.1062H13V14.1062C13 14.3714 12.8946 14.6258 12.7071 14.8133C12.5196 15.0008 12.2652 15.1062 12 15.1062H4C3.73478 15.1062 3.48043 15.0008 3.29289 14.8133C3.10536 14.6258 3 14.3714 3 14.1062V4.1062H2V3.1062H14ZM12 14.1062V4.1062H4V14.1062H12Z" fill="#979797"/>
<path d="M10 1.1062H6V2.1062H10V1.1062Z" fill="#979797"/>
</svg>
