<svg width="16" height="17" viewBox="0 0 16 17" fill="none" xmlns="http://www.w3.org/2000/svg">
<path d="M3.54975 12.3062C3.58475 12.3062 3.61975 12.3027 3.65475 12.2975L6.59825 11.7812C6.63325 11.7742 6.6665 11.7585 6.691 11.7322L14.1092 4.31395C14.1255 4.29776 14.1383 4.27853 14.1471 4.25736C14.1559 4.23619 14.1604 4.2135 14.1604 4.19058C14.1604 4.16766 14.1559 4.14496 14.1471 4.12379C14.1383 4.10262 14.1255 4.08339 14.1092 4.0672L11.2008 1.15695C11.1675 1.1237 11.1237 1.1062 11.0765 1.1062C11.0293 1.1062 10.9855 1.1237 10.9522 1.15695L3.534 8.5752C3.50775 8.60145 3.492 8.63295 3.485 8.66795L2.96875 11.6115C2.95173 11.7052 2.95781 11.8017 2.98647 11.8926C3.01514 11.9834 3.06552 12.0659 3.13325 12.133C3.24875 12.245 3.394 12.3062 3.54975 12.3062ZM4.72925 9.2542L11.0765 2.9087L12.3592 4.19145L6.012 10.537L4.45625 10.8117L4.72925 9.2542ZM14.44 13.7762H1.56C1.25025 13.7762 1 14.0265 1 14.3362V14.9662C1 15.0432 1.063 15.1062 1.14 15.1062H14.86C14.937 15.1062 15 15.0432 15 14.9662V14.3362C15 14.0265 14.7498 13.7762 14.44 13.7762Z" fill="#B1B1B1"/>
</svg>
