<svg width="375" height="812" viewBox="0 0 375 812" fill="none" xmlns="http://www.w3.org/2000/svg">
<g opacity="0.5">
<mask id="mask0" mask-type="alpha" maskUnits="userSpaceOnUse" x="0" y="0" width="375" height="812">
<rect width="375" height="812" fill="#C4C4C4"/>
</mask>
<g mask="url(#mask0)">
<path d="M765.334 352.779C755.45 342.353 742.185 336.508 728.368 336.491C658.5 336.491 436.706 336.491 329.092 336.491C297.05 336.491 288.531 337.757 274.386 323.748C263.757 313.284 247.892 295.646 245.235 292.608H708.596L640.994 221.974C631.517 212.078 618.853 206.542 605.67 206.53H492.35L438.738 143.153L442.099 137.583L539.71 133.954L579.489 72.3494L560.733 58.5938C560.733 58.5938 462.496 54.8806 414.277 66.4421C380.515 72.9401 353.944 111.507 353.944 111.507L322.683 152.605L358.477 206.193H287.593H110.424L309.241 422.147H831.137L765.334 352.779ZM245.001 292.186V292.693L244.61 292.186H245.001Z" fill="#F9C45A"/>
<path d="M754.787 555.39L834.658 471H313.388L253.992 535.559C252.355 537.329 251.24 539.583 250.789 542.037C250.337 544.492 250.569 547.035 251.456 549.347C252.342 551.658 253.843 553.635 255.769 555.026C257.695 556.417 259.959 557.16 262.277 557.163H698.362C693.36 562.648 679.918 577.501 670.618 586.699C656.473 600.708 647.954 599.189 615.912 599.442C508.219 598.851 286.269 599.442 216.636 599.442C209.848 599.453 203.13 600.912 196.866 603.736C190.603 606.56 184.918 610.694 180.139 615.898L135.358 664.591C133.799 666.292 132.735 668.449 132.299 670.796C131.864 673.142 132.075 675.576 132.906 677.794C133.738 680.012 135.154 681.919 136.979 683.277C138.804 684.635 140.958 685.386 143.174 685.436H580.822C575.039 691.85 563.004 705.015 554.485 713.369C540.34 727.378 531.821 725.859 499.779 726.112C389.351 725.521 158.726 726.112 95.423 726.112C90.2223 726.114 85.0732 727.226 80.2717 729.384C75.4702 731.542 71.111 734.703 67.4448 738.686L0 811.515H519.395L699.143 616.151L754.787 555.39Z" fill="#F9C45A"/>
</g>
</g>
</svg>
