<svg width="163" height="48" viewBox="0 0 163 48" fill="none" xmlns="http://www.w3.org/2000/svg">
<path d="M53.0795 18.8484C52.397 18.1817 51.481 17.8079 50.5269 17.8068C45.7025 17.8068 30.3874 17.8068 22.9565 17.8068C20.7439 17.8068 20.1557 17.8878 19.1789 16.992C18.445 16.3228 17.3495 15.195 17.1661 15.0007H49.1616L44.4937 10.4839C43.8393 9.85109 42.9648 9.49704 42.0545 9.49631H34.2296L30.5277 5.44357L30.7597 5.0874L37.4999 4.85536L40.2467 0.915943L38.9515 0.0363213C38.9515 0.0363213 32.1682 -0.201123 28.8386 0.538192C26.5073 0.953719 24.6725 3.4199 24.6725 3.4199L22.5139 6.04797L24.9855 9.47472H20.0909H7.85718L21.5858 23.2842H57.6233L53.0795 18.8484ZM17.1499 14.9737V15.0061L17.1229 14.9737H17.1499Z" fill="white"/>
<path d="M52.1189 31.1091L57.6341 25.7126H21.6398L17.5385 29.8409C17.4254 29.9541 17.3484 30.0983 17.3173 30.2552C17.2861 30.4122 17.3021 30.5748 17.3633 30.7226C17.4245 30.8705 17.5282 30.9968 17.6612 31.0858C17.7941 31.1747 17.9505 31.2223 18.1105 31.2224H48.2227C47.8773 31.5732 46.9491 32.523 46.307 33.1112C45.3302 34.007 44.742 33.9099 42.5294 33.926C35.0931 33.8883 19.7672 33.926 14.959 33.926C14.4903 33.9267 14.0264 34.0201 13.5939 34.2006C13.1614 34.3812 12.7688 34.6455 12.4388 34.9784L9.34666 38.0921C9.23896 38.2009 9.16552 38.3388 9.13543 38.4888C9.10533 38.6389 9.1199 38.7945 9.17734 38.9364C9.23477 39.0782 9.33255 39.2001 9.45856 39.287C9.58457 39.3738 9.73329 39.4218 9.8863 39.425H40.1064C39.7071 39.8352 38.876 40.677 38.2878 41.2113C37.3111 42.1071 36.7229 42.0099 34.5103 42.0261C26.8851 41.9883 10.9602 42.0261 6.58907 42.0261C6.22995 42.0262 5.8744 42.0973 5.54285 42.2353C5.2113 42.3733 4.9103 42.5755 4.65714 42.8302L0 47.4873H35.8648L48.2767 34.9945L52.1189 31.1091Z" fill="white"/>
<path d="M140.556 6.09111C140.626 6.1647 140.711 6.22342 140.804 6.2638C140.903 6.30699 141.01 6.32905 141.117 6.32856C141.225 6.32843 141.331 6.3064 141.43 6.2638C141.527 6.22318 141.615 6.16458 141.689 6.09111C141.765 6.0168 141.825 5.9289 141.867 5.83208C141.912 5.73172 141.936 5.62345 141.938 5.51369C141.942 5.40498 141.923 5.29661 141.884 5.1953C141.847 5.0991 141.792 5.01105 141.722 4.93627C141.651 4.86169 141.567 4.80125 141.473 4.75819C141.375 4.71404 141.268 4.69194 141.16 4.69343C141.053 4.69278 140.946 4.71484 140.847 4.75819C140.751 4.80141 140.663 4.86175 140.588 4.93627C140.512 5.01085 140.45 5.09861 140.405 5.1953C140.358 5.29497 140.332 5.40344 140.329 5.51369C140.324 5.62246 140.343 5.73104 140.383 5.83208C140.424 5.92872 140.482 6.01667 140.556 6.09111Z" fill="white"/>
<path d="M142.348 6.1668C142.418 6.24039 142.502 6.29911 142.596 6.33948C142.695 6.38267 142.801 6.40473 142.909 6.40424C143.017 6.40411 143.123 6.38208 143.222 6.33948C143.318 6.29887 143.406 6.24026 143.481 6.1668C143.556 6.09248 143.617 6.00459 143.659 5.90777C143.703 5.8074 143.727 5.69913 143.729 5.58937C143.733 5.48067 143.715 5.37229 143.675 5.27098C143.639 5.17478 143.584 5.08674 143.513 5.01195C143.443 4.93738 143.358 4.87694 143.265 4.83387C143.167 4.78972 143.06 4.76762 142.952 4.76911C142.844 4.76846 142.738 4.79053 142.639 4.83387C142.543 4.87709 142.455 4.93743 142.38 5.01195C142.304 5.08653 142.242 5.17429 142.197 5.27098C142.149 5.37066 142.124 5.47913 142.121 5.58937C142.116 5.69814 142.134 5.80672 142.175 5.90777C142.215 6.0044 142.274 6.09235 142.348 6.1668Z" fill="white"/>
<path d="M139.477 15.1086H141.7C142.076 15.1123 142.448 15.0407 142.796 14.898C143.144 14.7552 143.459 14.5443 143.724 14.2775C144.29 13.623 144.609 12.7903 144.625 11.9247L144.684 9.89022C144.702 9.51751 144.642 9.14523 144.508 8.79692C144.374 8.4486 144.17 8.1318 143.907 7.86655C143.655 7.59327 143.349 7.3761 143.008 7.22919C142.667 7.08228 142.298 7.00892 141.927 7.01391C141.548 7.01039 141.173 7.08419 140.824 7.23081C140.475 7.37743 140.16 7.59376 139.898 7.86655C139.622 8.13292 139.401 8.45119 139.248 8.80309C139.095 9.15499 139.013 9.53361 139.007 9.9172V10.4568C138.999 10.7259 139.045 10.9938 139.143 11.2446C139.241 11.4954 139.388 11.724 139.576 11.9168C139.763 12.1096 139.988 12.2627 140.236 12.367C140.484 12.4712 140.751 12.5245 141.02 12.5237H142.876C142.876 12.664 142.968 12.95 142.402 13.3332C142.215 13.4566 141.994 13.5188 141.77 13.5112H139.547C138.343 13.4789 138.279 12.2215 138.289 11.8545L138.36 9.37756H136.741L136.66 11.8707C136.617 12.7426 136.898 13.5996 137.448 14.2775C137.71 14.5482 138.026 14.7618 138.375 14.9048C138.725 15.0478 139.099 15.1172 139.477 15.1086ZM141.042 10.9263C140.981 10.9274 140.921 10.916 140.866 10.8928C140.81 10.8696 140.76 10.8351 140.718 10.7914C140.675 10.7473 140.642 10.6948 140.621 10.6372C140.599 10.5796 140.59 10.5182 140.594 10.4568V9.9172C140.596 9.57339 140.729 9.24332 140.966 8.99441C141.079 8.87193 141.217 8.77492 141.371 8.70979C141.524 8.64466 141.69 8.61292 141.857 8.61666C142.022 8.61199 142.186 8.64337 142.338 8.7086C142.49 8.77383 142.626 8.87136 142.736 8.99441C142.848 9.11328 142.934 9.25333 142.991 9.40627C143.047 9.55921 143.073 9.72194 143.065 9.88482L143.033 10.9317L141.042 10.9263Z" fill="white"/>
<path d="M147.269 12.5292H149.12C149.266 12.9663 148.904 13.5005 148.041 13.5221H146.033L145.985 15.141H147.992C148.648 15.144 149.284 14.9167 149.789 14.4989C150.33 13.9676 150.705 13.2909 150.869 12.5508H159.735C160.013 12.5542 160.288 12.5026 160.546 12.3988C160.803 12.2951 161.038 12.1413 161.235 11.9463C161.441 11.7583 161.605 11.5299 161.718 11.2755C161.831 11.0211 161.891 10.7462 161.894 10.4677L162.185 7.13271L160.566 8.08789L160.307 10.4731C160.306 10.5355 160.292 10.597 160.266 10.6537C160.24 10.7104 160.203 10.761 160.156 10.8023C160.061 10.891 159.935 10.9394 159.805 10.9372H159.336L159.638 7.1597L158.019 8.11487L157.744 10.9642H156.778L157.08 7.18668L155.461 8.02313L155.18 10.9912H150.955L150.987 9.94427C151.003 9.57295 150.941 9.2025 150.806 8.85613C150.672 8.50975 150.467 8.19493 150.205 7.93139C149.957 7.64275 149.65 7.41125 149.305 7.25287C148.959 7.09448 148.583 7.01298 148.203 7.01399C147.825 7.0112 147.451 7.08537 147.103 7.23196C146.755 7.37856 146.441 7.59451 146.179 7.86663C145.902 8.13237 145.68 8.4504 145.526 8.80236C145.372 9.15433 145.29 9.53326 145.283 9.91728V10.4569C145.275 10.725 145.32 10.9921 145.417 11.2422C145.514 11.4923 145.66 11.7204 145.847 11.9128C146.033 12.1052 146.257 12.258 146.504 12.362C146.752 12.4661 147.017 12.5192 147.285 12.5184L147.269 12.5292ZM146.886 9.91189C146.891 9.56812 147.028 9.23943 147.269 8.99449C147.381 8.87365 147.518 8.77762 147.669 8.71256C147.821 8.64751 147.984 8.61487 148.149 8.61674C148.311 8.61409 148.472 8.64592 148.621 8.71011C148.769 8.7743 148.903 8.8694 149.012 8.98909C149.126 9.10762 149.215 9.24827 149.272 9.40234C149.33 9.55641 149.355 9.72065 149.347 9.8849L149.314 10.9318H147.323C147.263 10.9326 147.203 10.921 147.147 10.8978C147.091 10.8746 147.041 10.8401 146.999 10.7966C146.957 10.7532 146.924 10.7015 146.903 10.645C146.882 10.5884 146.872 10.5281 146.875 10.4677L146.886 9.91189Z" fill="white"/>
<path d="M85.264 10.4353C85.5528 10.7308 85.8977 10.9656 86.2785 11.126C86.678 11.2941 87.1078 11.3786 87.5413 11.3742C87.9799 11.3778 88.4148 11.2934 88.8202 11.126C89.2209 10.967 89.5873 10.7325 89.8995 10.4353C90.204 10.1385 90.4526 9.78933 90.6334 9.40453C90.8222 9.00776 90.9252 8.57563 90.9356 8.13636C90.9523 7.70225 90.875 7.26967 90.709 6.86819C90.3909 6.09421 89.7856 5.4734 89.0199 5.13593C88.6124 4.94763 88.1683 4.8518 87.7193 4.85532C87.2792 4.85303 86.8435 4.94311 86.4404 5.11974C86.0409 5.28599 85.6752 5.52373 85.3611 5.82128C85.0574 6.11634 84.8121 6.46602 84.638 6.85201C84.4579 7.25104 84.3606 7.68246 84.352 8.12017C84.3356 8.55326 84.4091 8.98504 84.5678 9.38834C84.726 9.78116 84.9629 10.1374 85.264 10.4353Z" fill="white"/>
<path d="M90.2503 13.9485C86.9009 13.9485 83.5713 15.0098 80.2615 17.1324L80.623 4.85547H74.0987L73.3918 29.8788H69.7222L69.5333 36.3546H91.9988C93.1242 36.368 94.2411 36.1573 95.2843 35.7349C96.3275 35.3124 97.2762 34.6866 98.0752 33.8938C98.898 33.1361 99.5585 32.2194 100.017 31.1991C100.475 30.1787 100.721 29.076 100.741 27.9577C100.741 27.9577 100.741 21.4819 99.3595 18.2441C98.1723 15.4595 95.3014 13.9485 90.2503 13.9485ZM94.2815 25.8207L94.2167 27.9793C94.2122 28.2333 94.1546 28.4835 94.0477 28.714C93.9409 28.9444 93.787 29.15 93.5961 29.3176C93.2054 29.6764 92.6909 29.8698 92.1607 29.8572H79.8675L80.0024 25.1677C80.0294 24.1802 83.672 22.0809 84.8269 21.6115C85.7706 21.2121 86.7475 20.8961 87.7464 20.6671C89.3804 20.3307 91.0765 20.4673 92.6355 21.061C93.812 21.4999 94.3606 23.0883 94.2815 25.8261V25.8207Z" fill="white"/>
<path d="M150.253 25.9394C150.256 25.3975 150.297 24.8564 150.378 24.3205C150.442 23.8726 150.507 23.4301 150.55 22.9822H159.492L161.597 16.4255H149.865C148.852 16.4311 147.872 16.7866 147.091 17.4317C146.311 18.0768 145.777 18.9719 145.58 19.9655C145.211 21.7088 144.966 23.4761 144.846 25.2541C144.745 26.7879 144.832 28.3284 145.105 29.841H141.43L141.479 28.2221C141.564 25.8253 141.152 23.4369 140.27 21.2067C138.986 18.2549 135.413 16.4524 128.317 16.3499L134.307 11.1531L129.752 6.59313L115.182 19.7173L117.907 24.9681C118.321 24.781 119.42 24.3816 121.204 23.77C123.192 23.134 125.27 22.8295 127.356 22.8688C129.684 22.8688 131.546 23.2772 132.942 24.0938C134.338 24.9105 135.007 26.2866 134.949 28.2221L134.911 29.8788H114.07C113.817 29.8872 113.565 29.8436 113.329 29.7508C113.093 29.658 112.879 29.5179 112.7 29.3392C112.517 29.1612 112.375 28.9464 112.282 28.7092C112.189 28.4719 112.147 28.2176 112.16 27.9631L112.834 4.85547H106.31L105.636 27.9199C105.6 29.0209 105.787 30.1178 106.185 31.1449C106.583 32.172 107.184 33.1083 107.953 33.8977C108.721 34.6872 109.64 35.3135 110.656 35.7394C111.672 36.1652 112.764 36.3818 113.865 36.3762H161.975L162.169 29.8195H153.799C151.101 29.895 150.253 28.9021 150.253 25.9394Z" fill="white"/>
<path d="M73.4889 47.9459L72.6417 47.8272C72.1052 47.755 71.5761 47.6358 71.0605 47.4711C70.5851 47.319 70.126 47.1201 69.6898 46.8775L70.8608 45.9547C71.3671 46.2449 71.9123 46.4611 72.4798 46.5968C73.124 46.7448 73.7832 46.8173 74.4441 46.8127C75.2026 46.8466 75.9602 46.7292 76.6728 46.4673C77.2017 46.2371 77.4715 45.9097 77.4823 45.4852C77.489 45.347 77.4609 45.2094 77.4005 45.0849C77.3402 44.9604 77.2496 44.8531 77.1369 44.7728C76.8619 44.579 76.5495 44.4448 76.2195 44.3789C75.8598 44.2926 75.3741 44.2152 74.7625 44.1468H74.6438H74.5089C73.7839 44.0738 73.0633 43.9621 72.3503 43.8123C71.8342 43.7033 71.3525 43.4699 70.9472 43.1323C70.7553 42.9546 70.6068 42.7352 70.5132 42.491C70.4196 42.2468 70.3835 41.9843 70.4075 41.7238C70.4085 41.4698 70.4595 41.2185 70.5576 40.9842C70.6558 40.75 70.7992 40.5373 70.9796 40.3585C71.4351 39.9351 71.9931 39.6375 72.5985 39.4951C74.3313 39.0536 76.1512 39.0891 77.8654 39.5976C78.3109 39.7321 78.7457 39.8998 79.166 40.0995L78.0867 41.0601C77.6232 40.8129 77.1348 40.6158 76.6297 40.4719C76.1405 40.3512 75.6386 40.2896 75.1348 40.2884C74.4164 40.2549 73.699 40.3745 73.0302 40.6392C72.8174 40.7099 72.6306 40.8429 72.494 41.0208C72.3574 41.1988 72.2773 41.4136 72.2639 41.6375C72.2577 41.777 72.289 41.9157 72.3545 42.039C72.42 42.1624 72.5173 42.266 72.6363 42.339C72.9276 42.525 73.2518 42.6532 73.5915 42.7168C73.9728 42.7959 74.5124 42.8805 75.2104 42.9704H75.2805H75.3507H75.4478H75.545C76.2163 43.0525 76.8815 43.1787 77.5363 43.3482C78.0065 43.4968 78.4354 43.7537 78.7882 44.0983C78.9718 44.2674 79.1154 44.4752 79.2087 44.7067C79.302 44.9382 79.3427 45.1875 79.3279 45.4366C79.326 45.69 79.2723 45.9404 79.1703 46.1724C79.0682 46.4044 78.9198 46.6131 78.7343 46.7857C78.2588 47.2054 77.6854 47.4986 77.0668 47.6384C76.2106 47.8482 75.3308 47.9461 74.4495 47.9298L73.4889 47.9459Z" fill="white"/>
<path d="M84.6433 47.5682C84.0274 47.3722 83.4842 46.9963 83.0838 46.4889C82.7166 45.9803 82.5339 45.3616 82.5657 44.7351L82.6682 39.2307H84.5192L84.4221 44.7891C84.4037 45.0712 84.458 45.3534 84.5799 45.6085C84.7018 45.8636 84.8871 46.0832 85.1182 46.2461C85.7249 46.635 86.4384 46.8238 87.1581 46.7857C87.8877 46.8216 88.6109 46.6333 89.2303 46.2461C89.4679 46.0857 89.6616 45.8683 89.7935 45.6138C89.9255 45.3592 89.9916 45.0757 89.9858 44.7891L90.0937 39.2415H91.9393L91.8368 44.7459C91.84 45.3711 91.637 45.9799 91.2594 46.4781C90.8353 46.9868 90.273 47.3617 89.6404 47.5574C88.8299 47.826 87.9794 47.9537 87.1257 47.9352C86.2832 47.9575 85.4433 47.8333 84.6433 47.5682Z" fill="white"/>
<path d="M97.5786 47.5521C96.9451 47.3385 96.3842 46.9515 95.9597 46.435C95.5891 45.96 95.398 45.3695 95.4201 44.7675L95.4686 42.3229C95.4675 41.716 95.6752 41.1273 96.0568 40.6554C96.4958 40.1427 97.0642 39.7569 97.7028 39.5383C98.484 39.2629 99.3083 39.1295 100.137 39.1444C100.961 39.1282 101.782 39.2617 102.56 39.5383C103.193 39.7521 103.754 40.1391 104.178 40.6554C104.549 41.1303 104.74 41.7208 104.718 42.3229L104.691 44.7891C104.675 45.3818 104.46 45.952 104.081 46.408C103.642 46.9207 103.074 47.3065 102.435 47.5251C101.654 47.8001 100.83 47.9335 100.002 47.919C99.1785 47.9437 98.3576 47.8194 97.5786 47.5521ZM101.464 46.5159C101.844 46.3816 102.179 46.1466 102.435 45.836C102.667 45.5461 102.794 45.1869 102.797 44.8161L102.846 42.2905C102.858 41.9243 102.746 41.5647 102.527 41.2706C102.281 40.9586 101.952 40.7229 101.577 40.5906C101.12 40.4215 100.635 40.3391 100.147 40.3478C99.6562 40.3394 99.1678 40.4218 98.7065 40.5906C98.3269 40.7247 97.991 40.9598 97.7351 41.2706C97.5038 41.5605 97.3765 41.9196 97.3736 42.2905L97.3196 44.7891C97.3073 45.1553 97.4195 45.5149 97.638 45.809C97.8839 46.1209 98.2132 46.3567 98.5878 46.489C99.0452 46.6581 99.5302 46.7404 100.018 46.7318C100.506 46.7463 100.992 46.6713 101.453 46.5105L101.464 46.5159ZM100.023 45.469L101 44.6703L105.857 47.1959L104.88 48L100.023 45.469Z" fill="white"/>
<path d="M117.054 47.5521C116.421 47.3385 115.86 46.9515 115.436 46.435C115.065 45.96 114.874 45.3695 114.896 44.7675L114.944 42.3229C114.949 41.7134 115.165 41.1243 115.554 40.6554C115.993 40.1427 116.562 39.7569 117.2 39.5383C117.981 39.2629 118.806 39.1295 119.634 39.1444C120.459 39.1282 121.28 39.2617 122.057 39.5383C122.69 39.7521 123.251 40.1391 123.676 40.6554C124.047 41.1303 124.238 41.7208 124.216 42.3229L124.167 44.7891C124.157 45.3792 123.95 45.9491 123.579 46.408C123.14 46.9207 122.571 47.3065 121.933 47.5251C121.151 47.8001 120.327 47.9335 119.499 47.919C118.669 47.9464 117.84 47.822 117.054 47.5521ZM120.94 46.5159C121.319 46.3816 121.655 46.1466 121.911 45.836C122.143 45.5461 122.27 45.1869 122.273 44.8161L122.321 42.2905C122.334 41.9243 122.222 41.5647 122.003 41.2706C121.757 40.9586 121.428 40.7229 121.053 40.5906C120.596 40.4215 120.111 40.3391 119.623 40.3478C119.132 40.3394 118.644 40.4218 118.182 40.5906C117.803 40.7247 117.467 40.9598 117.211 41.2706C116.98 41.5605 116.852 41.9196 116.849 42.2905L116.801 44.7891C116.788 45.1553 116.901 45.5149 117.119 45.809C117.365 46.1209 117.694 46.3567 118.069 46.489C118.526 46.6581 119.011 46.7404 119.499 46.7318C119.989 46.7469 120.477 46.672 120.94 46.5105V46.5159Z" fill="white"/>
<path d="M128.23 39.2307H130.054L129.893 47.865H128.047L128.23 39.2307ZM129.59 44.0875L135.499 39.2307H137.771L129.283 45.8684L129.59 44.0875ZM131.798 43.2673L133.292 42.3714L138.149 47.8542H135.883L131.798 43.2673Z" fill="white"/>
<path d="M144.873 39.2307H146.449L151.144 47.865H149.153L145.634 40.909L141.857 47.865H139.865L144.873 39.2307ZM142.175 44.8106H149.104V45.9601H142.126L142.175 44.8106Z" fill="white"/>
<path d="M161.894 40.2776L156.039 46.7048H161.975V47.8542H153.74V46.8127L159.643 40.3855H154.047V39.2361H161.894V40.2776Z" fill="white"/>
</svg>
