<svg width="22" height="22" viewBox="0 0 22 22" fill="none" xmlns="http://www.w3.org/2000/svg">
<path d="M12.8334 4.4V6.41667H15.5834V9.16667H16.8759C16.9309 9.52417 16.9584 9.89083 16.9584 10.2667C16.9584 12.6225 15.0334 15.5742 11.3117 18.9842L11.0001 19.2592L10.6884 18.975C6.96675 15.5742 5.04175 12.6225 5.04175 10.2667C5.04175 6.74667 7.62675 4.125 11.0001 4.125C11.6417 4.125 12.2559 4.21667 12.8334 4.4Z" fill="#242424" fill-opacity="0.25"/>
<path d="M18.3334 0.916748V3.66675H21.0834V5.50008H18.3334V8.25008H16.5001V5.50008H13.7501V3.66675H16.5001V0.916748H18.3334ZM11.0001 11.9167C9.99175 11.9167 9.16675 11.0917 9.16675 10.0834C9.16675 9.07508 9.99175 8.25008 11.0001 8.25008C12.0084 8.25008 12.8334 9.07508 12.8334 10.0834C12.8334 11.0917 12.0084 11.9167 11.0001 11.9167ZM12.8334 2.97925V4.88591C12.2651 4.68425 11.6417 4.58341 11.0001 4.58341C7.92925 4.58341 5.50008 6.93925 5.50008 10.2667C5.50008 12.4117 7.28758 15.2534 11.0001 18.6451C14.7126 15.2534 16.5001 12.4209 16.5001 10.2667C16.5001 9.89091 16.4726 9.52425 16.4084 9.16675H18.2601C18.3059 9.52425 18.3334 9.89091 18.3334 10.2667C18.3334 13.3101 15.8859 16.9126 11.0001 21.0834C6.11425 16.9126 3.66675 13.3101 3.66675 10.2667C3.66675 5.70175 7.15008 2.75008 11.0001 2.75008C11.6234 2.75008 12.2376 2.82341 12.8334 2.97925Z" fill="#242424"/>
</svg>
