<svg width="118" height="126" viewBox="0 0 118 126" fill="none" xmlns="http://www.w3.org/2000/svg">
<path d="M3.68578 29.2511L59.0001 56.9082M59.0001 56.9082L114.314 29.2511M59.0001 56.9082L59.0001 124.108M30.4286 14.0511L87.5715 42.6225M64.0858 2.33679L109.8 25.1939C111.704 26.1401 113.307 27.5986 114.427 29.4056C115.548 31.2126 116.142 33.2963 116.143 35.4225V89.8797C116.142 92.0058 115.548 94.0896 114.427 95.8965C113.307 97.7035 111.704 99.1621 109.8 100.108L64.0858 122.965C62.498 123.76 60.747 124.174 58.9715 124.174C57.196 124.174 55.445 123.76 53.8572 122.965L8.14292 100.108C6.24081 99.1498 4.64437 97.6789 3.53371 95.8615C2.42306 94.044 1.84239 91.9524 1.85721 89.8225V35.4225C1.85834 33.2963 2.45257 31.2126 3.57309 29.4056C4.69361 27.5986 6.29599 26.1401 8.20007 25.1939L53.9143 2.33679C55.4947 1.55151 57.2354 1.14285 59.0001 1.14285C60.7647 1.14285 62.5055 1.55151 64.0858 2.33679Z" stroke="#333333" stroke-width="2" stroke-linecap="round" stroke-linejoin="round"/>
</svg>
