<svg width="24" height="24" viewBox="0 0 24 24" fill="none" xmlns="http://www.w3.org/2000/svg">
<rect width="24" height="24" rx="3" fill="#F9C45A"/>
<g clip-path="url(#clip0)">
<path d="M9.82797 15.3338C9.13607 15.3338 8.5752 15.8947 8.5752 16.5866C8.5752 17.2785 9.13609 17.8394 9.82797 17.8394C10.5199 17.8394 11.0808 17.2785 11.0808 16.5866C11.0808 15.8947 10.5199 15.3338 9.82797 15.3338ZM9.82797 17.2826C9.44359 17.2826 9.13199 16.971 9.13199 16.5866C9.13199 16.2022 9.44359 15.8906 9.82797 15.8906C10.2124 15.8906 10.524 16.2022 10.524 16.5866C10.524 16.971 10.2124 17.2826 9.82797 17.2826Z" fill="white" stroke="white" stroke-width="0.1"/>
<path d="M15.1175 15.3338C14.4256 15.3338 13.8647 15.8947 13.8647 16.5866C13.8647 17.2785 14.4256 17.8394 15.1175 17.8394C15.8094 17.8394 16.3703 17.2785 16.3703 16.5866C16.3703 15.8947 15.8094 15.3338 15.1175 15.3338ZM15.1175 17.2826C14.7331 17.2826 14.4215 16.971 14.4215 16.5866C14.4215 16.2022 14.7331 15.8906 15.1175 15.8906C15.5019 15.8906 15.8135 16.2022 15.8135 16.5866C15.8135 16.971 15.5019 17.2826 15.1175 17.2826Z" fill="white" stroke="white" stroke-width="0.1"/>
<path d="M17.9433 8.02589C17.8853 7.96256 17.806 7.92292 17.7205 7.91452L8.6587 7.78924L8.40815 7.02364C8.23164 6.51185 7.75237 6.16633 7.21103 6.16061H6.2784C6.12464 6.16061 6 6.28524 6 6.439C6 6.59276 6.12464 6.7174 6.2784 6.7174H7.21103C7.51373 6.72409 7.78027 6.91845 7.87919 7.20461L9.64702 12.5359L9.50783 12.8561C9.35258 13.2564 9.39921 13.707 9.63311 14.0671C9.86478 14.4208 10.2545 14.639 10.6771 14.6517H16.092C16.2457 14.6517 16.3704 14.5271 16.3704 14.3733C16.3704 14.2196 16.2457 14.0949 16.092 14.0949H10.6771C10.4384 14.089 10.2188 13.9634 10.0924 13.7609C9.96754 13.5608 9.94188 13.3143 10.0229 13.0927L10.1342 12.8421L15.9945 12.2297C16.6382 12.1588 17.1677 11.6906 17.3169 11.0604L17.9851 8.26249C18.0152 8.18192 17.9992 8.0913 17.9433 8.02589ZM16.774 10.9351C16.6836 11.3408 16.3392 11.64 15.9249 11.6729L10.1342 12.2714L8.83967 8.34604L17.3726 8.47132L16.774 10.9351Z" fill="white" stroke="white" stroke-width="0.1"/>
</g>
<defs>
<clipPath id="clip0">
<rect width="12" height="12" fill="white" transform="translate(6 6)"/>
</clipPath>
</defs>
</svg>
