<svg width="12" height="12" viewBox="0 0 12 12" fill="none" xmlns="http://www.w3.org/2000/svg">
<g clip-path="url(#clip0)">
<path d="M3.82796 9.33382C3.13605 9.33382 2.57518 9.89472 2.57518 10.5866C2.57518 11.2785 3.13608 11.8394 3.82796 11.8394C4.51986 11.8394 5.08074 11.2785 5.08074 10.5866C5.08076 9.89472 4.51986 9.33382 3.82796 9.33382ZM3.82796 11.2826C3.44357 11.2826 3.13198 10.971 3.13198 10.5866C3.13198 10.2022 3.44357 9.89064 3.82796 9.89064C4.21234 9.89064 4.52394 10.2022 4.52394 10.5866C4.52397 10.971 4.21234 11.2826 3.82796 11.2826Z" fill="#D1D1D1" stroke="#D1D1D1" stroke-width="0.1"/>
<path d="M9.11752 9.33382C8.42562 9.33382 7.86475 9.89472 7.86475 10.5866C7.86475 11.2785 8.42565 11.8394 9.11752 11.8394C9.8094 11.8394 10.3703 11.2785 10.3703 10.5866C10.3703 9.89472 9.80943 9.33382 9.11752 9.33382ZM9.11752 11.2826C8.73314 11.2826 8.42154 10.971 8.42154 10.5866C8.42154 10.2022 8.73314 9.89064 9.11752 9.89064C9.50191 9.89064 9.81351 10.2022 9.81351 10.5866C9.81353 10.971 9.50191 11.2826 9.11752 11.2826Z" fill="#D1D1D1" stroke="#D1D1D1" stroke-width="0.1"/>
<path d="M11.9433 2.02589C11.8853 1.96256 11.806 1.92291 11.7205 1.91452L2.6587 1.78924L2.40815 1.02364C2.23164 0.511847 1.75237 0.166334 1.21103 0.160605H0.278398C0.124638 0.160605 0 0.285244 0 0.439004C0 0.592763 0.124638 0.717402 0.278398 0.717402H1.21103C1.51373 0.724089 1.78027 0.918454 1.87919 1.2046L3.64702 6.53592L3.50783 6.85607C3.35258 7.25641 3.39921 7.70701 3.63311 8.06709C3.86478 8.42076 4.25452 8.63902 4.67711 8.65173H10.092C10.2457 8.65173 10.3704 8.5271 10.3704 8.37334C10.3704 8.21958 10.2457 8.09494 10.092 8.09494H4.67708C4.43844 8.08897 4.21876 7.96343 4.09245 7.76086C3.96754 7.56076 3.94188 7.31426 4.02285 7.09269L4.13422 6.84213L9.99449 6.22965C10.6382 6.15875 11.1677 5.69057 11.3169 5.06037L11.9851 2.26249C12.0152 2.18192 11.9992 2.0913 11.9433 2.02589ZM10.774 4.93512C10.6836 5.3408 10.3392 5.64003 9.9249 5.67288L4.13422 6.27143L2.83967 2.34604L11.3726 2.47132L10.774 4.93512Z" fill="#D1D1D1" stroke="#D1D1D1" stroke-width="0.1"/>
</g>
<defs>
<clipPath id="clip0">
<rect width="12" height="12" fill="white"/>
</clipPath>
</defs>
</svg>
