<svg width="16" height="16" viewBox="0 0 16 16" fill="none" xmlns="http://www.w3.org/2000/svg">
<path d="M6.8168 2C6.8168 1.25442 6.21238 0.65 5.4668 0.65H2.00013C1.25455 0.65 0.65013 1.25442 0.65013 2V5.46666C0.65013 6.21225 1.25455 6.81667 2.00013 6.81667H5.4668C6.21238 6.81667 6.8168 6.21225 6.8168 5.46667V2Z" stroke="#F9C45A" stroke-width="1.3"/>
<path d="M15.35 2C15.35 1.25442 14.7456 0.65 14 0.65H10.5333C9.78775 0.65 9.18333 1.25442 9.18333 2V5.46666C9.18333 6.21225 9.78775 6.81667 10.5333 6.81667H14C14.7456 6.81667 15.35 6.21225 15.35 5.46667V2Z" stroke="#F9C45A" stroke-width="1.3"/>
<path d="M15.35 10.5333C15.35 9.78774 14.7456 9.18333 14 9.18333H10.5333C9.78775 9.18333 9.18333 9.78774 9.18333 10.5333V14C9.18333 14.7456 9.78775 15.35 10.5333 15.35H14C14.7456 15.35 15.35 14.7456 15.35 14V10.5333Z" stroke="#F9C45A" stroke-width="1.3"/>
<path d="M6.8168 10.5333C6.8168 9.78774 6.21238 9.18333 5.4668 9.18333H2.00013C1.25455 9.18333 0.65013 9.78774 0.65013 10.5333V14C0.65013 14.7456 1.25455 15.35 2.00013 15.35H5.4668C6.21238 15.35 6.8168 14.7456 6.8168 14V10.5333Z" stroke="#F9C45A" stroke-width="1.3"/>
</svg>
