<svg width="19" height="16" viewBox="0 0 19 16" fill="none" xmlns="http://www.w3.org/2000/svg">
<path d="M16.8757 1.41452C16.4289 0.966073 15.8984 0.610337 15.3145 0.367629C14.7307 0.124922 14.1048 0 13.4728 0C12.8408 0 12.215 0.124922 11.6311 0.367629C11.0472 0.610337 10.5167 0.966073 10.0699 1.41452L9.14262 2.34476L8.21535 1.41452C7.31284 0.509117 6.08878 0.0004693 4.81244 0.000469309C3.5361 0.000469319 2.31204 0.509117 1.40953 1.41452C0.507024 2.31992 9.50947e-09 3.5479 0 4.82833C-9.50947e-09 6.10875 0.507024 7.33674 1.40953 8.24214L2.3368 9.17238L9.14262 16L15.9484 9.17238L16.8757 8.24214C17.3227 7.79391 17.6773 7.26171 17.9193 6.67596C18.1612 6.0902 18.2857 5.46237 18.2857 4.82833C18.2857 4.19428 18.1612 3.56645 17.9193 2.9807C17.6773 2.39494 17.3227 1.86275 16.8757 1.41452Z" fill="#F9545B"/>
</svg>
