<svg width="21" height="18" viewBox="0 0 21 18" fill="none" xmlns="http://www.w3.org/2000/svg">
<path d="M17.8757 2.41452C17.4289 1.96607 16.8984 1.61034 16.3145 1.36763C15.7307 1.12492 15.1048 1 14.4728 1C13.8408 1 13.215 1.12492 12.6311 1.36763C12.0472 1.61034 11.5167 1.96607 11.0699 2.41452L10.1426 3.34476L9.21535 2.41452C8.31284 1.50912 7.08878 1.00047 5.81244 1.00047C4.5361 1.00047 3.31204 1.50912 2.40953 2.41452C1.50702 3.31992 1 4.5479 1 5.82833C1 7.10875 1.50702 8.33674 2.40953 9.24214L3.3368 10.1724L10.1426 17L16.9484 10.1724L17.8757 9.24214C18.3227 8.79391 18.6773 8.26171 18.9193 7.67596C19.1612 7.0902 19.2857 6.46237 19.2857 5.82833C19.2857 5.19428 19.1612 4.56645 18.9193 3.9807C18.6773 3.39494 18.3227 2.86275 17.8757 2.41452Z" fill="white" stroke="#DFDFDF" stroke-width="1.5" stroke-linecap="round" stroke-linejoin="round"/>
</svg>
