<svg width="16" height="14" viewBox="0 0 16 14" fill="none" xmlns="http://www.w3.org/2000/svg">
<path d="M5.6 11.5578L7.2 12.3356V7.21C7.19912 7.00596 7.11579 6.81042 6.968 6.66556L1.784 1.55556H14.232L9.056 6.66556C8.90821 6.81042 8.82488 7.00596 8.824 7.21L8.8 13.2222L10.4 14V7.52889L15.664 2.33333C15.8746 2.12564 15.9949 1.84714 16 1.55556V0.777778C16 0.571498 15.9157 0.373668 15.7657 0.227806C15.6157 0.0819444 15.4122 0 15.2 0H0.8C0.587827 0 0.384344 0.0819444 0.234315 0.227806C0.0842856 0.373668 0 0.571498 0 0.777778V1.55556C0.005118 1.84714 0.125428 2.12564 0.336 2.33333L5.6 7.52889V11.5578Z" fill="#242424"/>
</svg>
