<svg width="16" height="15" viewBox="0 0 16 15" fill="none" xmlns="http://www.w3.org/2000/svg">
<path d="M8 14.2349C7.77222 14.2349 7.55261 14.1523 7.38147 14.0024C6.73511 13.4373 6.11194 12.9061 5.56213 12.4376L5.55933 12.4352C3.94739 11.0615 2.55542 9.87525 1.58691 8.70667C0.504272 7.40027 0 6.16162 0 4.80847C0 3.49377 0.450806 2.28088 1.26929 1.39307C2.09753 0.494751 3.23401 0 4.46973 0C5.39331 0 6.23914 0.291992 6.98364 0.867798C7.35938 1.15845 7.69995 1.51416 8 1.92908C8.30017 1.51416 8.64062 1.15845 9.01648 0.867798C9.76099 0.291992 10.6068 0 11.5304 0C12.766 0 13.9026 0.494751 14.7308 1.39307C15.5493 2.28088 16 3.49377 16 4.80847C16 6.16162 15.4958 7.40027 14.4132 8.70654C13.4447 9.87525 12.0529 11.0614 10.4412 12.4349C9.89038 12.9042 9.26624 13.4362 8.61841 14.0027C8.44739 14.1523 8.22766 14.2349 8 14.2349ZM4.46973 0.937256C3.4989 0.937256 2.60706 1.32471 1.95825 2.02832C1.2998 2.74255 0.937134 3.72986 0.937134 4.80847C0.937134 5.94653 1.36011 6.96436 2.30847 8.10864C3.2251 9.21472 4.5885 10.3766 6.16711 11.7219L6.17004 11.7244C6.72192 12.1947 7.34753 12.7279 7.99866 13.2972C8.65369 12.7268 9.28027 12.1928 9.83325 11.7217C11.4117 10.3763 12.775 9.21472 13.6917 8.10864C14.6399 6.96436 15.0629 5.94653 15.0629 4.80847C15.0629 3.72986 14.7002 2.74255 14.0417 2.02832C13.3931 1.32471 12.5011 0.937256 11.5304 0.937256C10.8192 0.937256 10.1663 1.16333 9.58972 1.60913C9.07593 2.00659 8.71802 2.50903 8.50818 2.8606C8.40027 3.04138 8.21033 3.14929 8 3.14929C7.78967 3.14929 7.59973 3.04138 7.49182 2.8606C7.2821 2.50903 6.92419 2.00659 6.41028 1.60913C5.83374 1.16333 5.18079 0.937256 4.46973 0.937256Z" fill="#979797"/>
</svg>
