<svg width="48" height="48" viewBox="0 0 48 48" fill="none" xmlns="http://www.w3.org/2000/svg">
<circle cx="24" cy="24" r="24" fill="#F9C45A"/>
<mask id="path-2-inside-1" fill="white">
<path d="M24 36C30.6274 36 36 30.6274 36 24C36 17.3726 30.6274 12 24 12C17.3726 12 12 17.3726 12 24C12 30.6274 17.3726 36 24 36Z"/>
<path d="M20.508 20.4C20.7901 19.598 21.347 18.9217 22.0799 18.491C22.8129 18.0602 23.6747 17.9027 24.5126 18.0465C25.3505 18.1902 26.1106 18.6258 26.6581 19.2762C27.2056 19.9266 27.5053 20.7498 27.504 21.6C27.504 24 23.904 25.2 23.904 25.2"/>
<path d="M25.2 30C25.2 30.6627 24.6627 31.2 24 31.2C23.3373 31.2 22.8 30.6627 22.8 30C22.8 29.3373 23.3373 28.8 24 28.8C24.6627 28.8 25.2 29.3373 25.2 30Z"/>
</mask>
<path d="M19.5647 20.0682C19.3814 20.5891 19.6552 21.1601 20.1762 21.3433C20.6971 21.5266 21.2681 21.2528 21.4513 20.7318L19.5647 20.0682ZM27.504 21.6L26.504 21.5985V21.6H27.504ZM23.5878 24.2513C23.0638 24.426 22.7807 24.9923 22.9553 25.5162C23.13 26.0402 23.6963 26.3233 24.2202 26.1487L23.5878 24.2513ZM35 24C35 30.0751 30.0751 35 24 35V37C31.1797 37 37 31.1797 37 24H35ZM24 35C17.9249 35 13 30.0751 13 24H11C11 31.1797 16.8203 37 24 37V35ZM13 24C13 17.9249 17.9249 13 24 13V11C16.8203 11 11 16.8203 11 24H13ZM24 13C30.0751 13 35 17.9249 35 24H37C37 16.8203 31.1797 11 24 11V13ZM21.4513 20.7318C21.6551 20.1526 22.0573 19.6642 22.5866 19.3531L21.5733 17.6288C20.6367 18.1793 19.9252 19.0434 19.5647 20.0682L21.4513 20.7318ZM22.5866 19.3531C23.116 19.042 23.7384 18.9283 24.3436 19.0321L24.6817 17.0608C23.611 16.8772 22.5098 17.0784 21.5733 17.6288L22.5866 19.3531ZM24.3436 19.0321C24.9487 19.1359 25.4976 19.4505 25.8931 19.9202L27.4231 18.6322C26.7235 17.8012 25.7524 17.2445 24.6817 17.0608L24.3436 19.0321ZM25.8931 19.9202C26.2885 20.39 26.5049 20.9845 26.504 21.5985L28.504 21.6015C28.5056 20.5152 28.1227 19.4633 27.4231 18.6322L25.8931 19.9202ZM26.504 21.6C26.504 22.2691 25.9889 22.9082 25.1493 23.4679C24.7599 23.7275 24.3634 23.9265 24.0604 24.0612C23.9102 24.1279 23.7865 24.1773 23.7027 24.2093C23.6609 24.2252 23.6292 24.2367 23.6094 24.2437C23.5995 24.2472 23.5926 24.2496 23.589 24.2509C23.5871 24.2515 23.5861 24.2519 23.5859 24.252C23.5858 24.252 23.5859 24.252 23.5862 24.2518C23.5863 24.2518 23.5866 24.2517 23.5868 24.2516C23.587 24.2516 23.5872 24.2515 23.5873 24.2515C23.5875 24.2514 23.5878 24.2513 23.904 25.2C24.2202 26.1487 24.2205 26.1486 24.2208 26.1485C24.2209 26.1484 24.2213 26.1483 24.2215 26.1483C24.222 26.1481 24.2225 26.1479 24.2231 26.1477C24.2243 26.1473 24.2257 26.1468 24.2273 26.1463C24.2306 26.1452 24.2347 26.1438 24.2397 26.1421C24.2496 26.1387 24.263 26.134 24.2794 26.1282C24.3124 26.1164 24.3581 26.0998 24.4147 26.0782C24.5277 26.0352 24.6853 25.9721 24.8726 25.8888C25.2446 25.7235 25.7481 25.4725 26.2587 25.1321C27.2191 24.4918 28.504 23.3309 28.504 21.6H26.504ZM24.2 30C24.2 30.1105 24.1105 30.2 24 30.2V32.2C25.215 32.2 26.2 31.215 26.2 30H24.2ZM24 30.2C23.8895 30.2 23.8 30.1105 23.8 30H21.8C21.8 31.215 22.785 32.2 24 32.2V30.2ZM23.8 30C23.8 29.8895 23.8895 29.8 24 29.8V27.8C22.785 27.8 21.8 28.785 21.8 30H23.8ZM24 29.8C24.1105 29.8 24.2 29.8895 24.2 30H26.2C26.2 28.785 25.215 27.8 24 27.8V29.8Z" fill="white" mask="url(#path-2-inside-1)"/>
</svg>
