<svg width="48" height="48" viewBox="0 0 48 48" fill="none" xmlns="http://www.w3.org/2000/svg">
<circle cx="24" cy="24" r="24" fill="#F9C45A"/>
<path d="M30.8573 32.5713H17.143C16.9157 32.5713 16.6977 32.481 16.5369 32.3203C16.3762 32.1595 16.2859 31.9415 16.2859 31.7142V16.2856C16.2859 16.0583 16.3762 15.8403 16.5369 15.6795C16.6977 15.5188 16.9157 15.4285 17.143 15.4285H30.8573C31.0846 15.4285 31.3027 15.5188 31.4634 15.6795C31.6242 15.8403 31.7145 16.0583 31.7145 16.2856V31.7142C31.7145 31.9415 31.6242 32.1595 31.4634 32.3203C31.3027 32.481 31.0846 32.5713 30.8573 32.5713ZM30.0002 30.857V17.1428H18.0002V30.857H30.0002ZM20.5716 19.7142H27.4287V21.4285H20.5716V19.7142ZM20.5716 23.1428H27.4287V24.857H20.5716V23.1428ZM20.5716 26.5713H24.8573V28.2856H20.5716V26.5713Z" fill="white"/>
</svg>
