<svg width="20" height="20" viewBox="0 0 20 20" fill="none" xmlns="http://www.w3.org/2000/svg">
<path d="M19.4609 8.69904L19.4594 8.69751L11.301 0.539398C10.9532 0.191498 10.4909 0 9.9991 0C9.50731 0 9.04497 0.191498 8.69707 0.539398L0.542928 8.69339C0.540182 8.69614 0.537282 8.69904 0.534688 8.70178C-0.179423 9.42001 -0.178202 10.5853 0.538198 11.3017C0.865499 11.6292 1.29763 11.8187 1.75982 11.8387C1.77874 11.8405 1.79766 11.8414 1.81673 11.8414H2.14174V17.8452C2.14174 19.0334 3.10854 20 4.29674 20H7.48858C7.81221 20 8.07451 19.7375 8.07451 19.4141V14.707C8.07451 14.1649 8.51564 13.7239 9.05779 13.7239H10.9404C11.4826 13.7239 11.9235 14.1649 11.9235 14.707V19.4141C11.9235 19.7375 12.1858 20 12.5095 20H15.7013C16.8897 20 17.8563 19.0334 17.8563 17.8452V11.8414H18.1578C18.6495 11.8414 19.1118 11.6499 19.4599 11.3019C20.177 10.5844 20.1773 9.41696 19.4609 8.69904Z" fill="#F9C45A"/>
<path d="M19.4609 8.69904C19.4603 8.69858 19.4599 8.69797 19.4594 8.69751L11.301 0.539398C10.9532 0.191498 10.4909 0 9.9991 0C9.50731 0 9.04497 0.191498 8.69707 0.539398L0.542928 8.69339C0.540182 8.69614 0.537282 8.69904 0.534688 8.70178C-0.179423 9.42001 -0.178202 10.5853 0.538198 11.3017C0.865499 11.6292 1.29763 11.8187 1.75982 11.8387C1.77874 11.8405 1.79766 11.8414 1.81673 11.8414H2.14174V17.8452C2.14174 19.0334 3.10854 20 4.29674 20H7.48858C7.81222 20 8.07451 19.7375 8.07451 19.4141V14.707C8.07451 14.1649 8.51565 13.7239 9.05779 13.7239H10.9404C11.4826 13.7239 11.9235 14.1649 11.9235 14.707V19.4141C11.9235 19.7375 12.1858 20 12.5095 20H15.7013C16.8897 20 17.8563 19.0334 17.8563 17.8452V11.8414H18.1578C18.6495 11.8414 19.1118 11.6499 19.4599 11.3019C20.177 10.5844 20.1773 9.41696 19.4609 8.69904ZM18.6312 10.4733C18.5047 10.5998 18.3365 10.6696 18.1578 10.6696H17.2704C16.9467 10.6696 16.6844 10.9319 16.6844 11.2555V17.8452C16.6844 18.3871 16.2435 18.8281 15.7013 18.8281H13.0954V14.707C13.0954 13.5188 12.1288 12.552 10.9404 12.552H9.05779C7.86944 12.552 6.90264 13.5188 6.90264 14.707V18.8281H4.29674C3.75475 18.8281 3.31362 18.3871 3.31362 17.8452V11.2555C3.31362 10.9319 3.05132 10.6696 2.72768 10.6696H1.85549C1.84633 10.6689 1.83733 10.6685 1.82802 10.6683C1.65346 10.6653 1.48974 10.596 1.36706 10.4732C1.10613 10.2122 1.10613 9.7876 1.36706 9.52652C1.36721 9.52652 1.36721 9.52637 1.36736 9.52621L1.36782 9.52576L9.52593 1.36795C9.65227 1.24146 9.82027 1.17188 9.9991 1.17188C10.1778 1.17188 10.3458 1.24146 10.4723 1.36795L18.6286 9.52408C18.6298 9.5253 18.6312 9.52652 18.6324 9.52774C18.8919 9.78912 18.8915 10.2129 18.6312 10.4733Z" fill="#242424"/>
</svg>
