<svg width="20" height="20" viewBox="0 0 20 20" fill="none" xmlns="http://www.w3.org/2000/svg">
<g clip-path="url(#clip0)">
<path d="M6.37996 15.5564C5.22678 15.5564 4.29199 16.4912 4.29199 17.6444C4.29199 18.7975 5.22682 19.7323 6.37996 19.7323C7.53313 19.7323 8.46792 18.7975 8.46792 17.6444C8.46796 16.4912 7.53313 15.5564 6.37996 15.5564ZM6.37996 18.8044C5.73931 18.8044 5.21999 18.285 5.21999 17.6444C5.21999 17.0038 5.73931 16.4844 6.37996 16.4844C7.0206 16.4844 7.53993 17.0038 7.53993 17.6444C7.53997 18.285 7.0206 18.8044 6.37996 18.8044Z" fill="#242424" stroke="#242424" stroke-width="0.1"/>
<path d="M15.1959 15.5564C14.0427 15.5564 13.1079 16.4912 13.1079 17.6444C13.1079 18.7975 14.0427 19.7323 15.1959 19.7323C16.349 19.7323 17.2838 18.7975 17.2838 17.6444C17.2838 16.4912 16.3491 15.5564 15.1959 15.5564ZM15.1959 18.8044C14.5552 18.8044 14.0359 18.285 14.0359 17.6444C14.0359 17.0038 14.5552 16.4844 15.1959 16.4844C15.8365 16.4844 16.3558 17.0038 16.3558 17.6444C16.3559 18.285 15.8365 18.8044 15.1959 18.8044Z" fill="#242424" stroke="#242424" stroke-width="0.1"/>
<path d="M19.9054 3.37651C19.8088 3.27096 19.6766 3.20488 19.5342 3.19089L4.43117 2.9821L4.01358 1.70609C3.71939 0.853103 2.92062 0.277247 2.01838 0.2677H0.463997C0.207731 0.2677 0 0.475431 0 0.731697C0 0.987963 0.207731 1.19569 0.463997 1.19569H2.01838C2.52288 1.20684 2.96711 1.53078 3.13199 2.0077L6.07837 10.8932L5.84639 11.4268C5.58764 12.094 5.66535 12.845 6.05519 13.4452C6.4413 14.0346 7.09086 14.3984 7.79519 14.4196H16.8199C17.0762 14.4196 17.2839 14.2119 17.2839 13.9556C17.2839 13.6993 17.0762 13.4916 16.8199 13.4916H7.79514C7.3974 13.4816 7.03127 13.2724 6.82074 12.9348C6.61257 12.6013 6.56981 12.1905 6.70476 11.8212L6.89037 11.4036L16.6575 10.3828C17.7303 10.2646 18.6129 9.48431 18.8615 8.43398L19.9751 3.77083C20.0253 3.63655 19.9986 3.48553 19.9054 3.37651ZM17.9567 8.22523C17.806 8.90135 17.232 9.40008 16.5415 9.45483L6.89037 10.4524L4.73278 3.91009L18.9543 4.11889L17.9567 8.22523Z" fill="#242424" stroke="#242424" stroke-width="0.1"/>
</g>
<defs>
<clipPath id="clip0">
<rect width="20" height="20" fill="white"/>
</clipPath>
</defs>
</svg>
