<svg width="22" height="20" viewBox="0 0 22 20" fill="none" xmlns="http://www.w3.org/2000/svg">
<path d="M20.5 3.5H5.5L5 4L7.5 11H9L13.5 10.5L18.5 9.5L20 7L20.5 3.5Z" fill="#E6A537"/>
<path d="M9 18L8.5 16.5L6.5 16L5.5 17.5L6 18.5L7 19.5L8.5 19L9 18Z" fill="#E6A537"/>
<path d="M15.5 16.5L16.5 16H17L17.5 17.5V18.5L17 19H16H15L14.5 17.5V17L15.5 16.5Z" fill="#E6A537"/>
<path d="M7.37996 15.5887C6.22678 15.5887 5.29199 16.5235 5.29199 17.6766C5.29199 18.8298 6.22682 19.7646 7.37996 19.7646C8.53313 19.7646 9.46792 18.8298 9.46792 17.6766C9.46796 16.5235 8.53313 15.5887 7.37996 15.5887ZM7.37996 18.8367C6.73931 18.8367 6.21999 18.3173 6.21999 17.6767C6.21999 17.036 6.73931 16.5167 7.37996 16.5167C8.0206 16.5167 8.53993 17.036 8.53993 17.6767C8.53997 18.3173 8.0206 18.8367 7.37996 18.8367Z" fill="#242424" stroke="#242424" stroke-width="0.1"/>
<path d="M16.1959 15.5887C15.0427 15.5887 14.1079 16.5235 14.1079 17.6766C14.1079 18.8298 15.0427 19.7646 16.1959 19.7646C17.349 19.7646 18.2838 18.8298 18.2838 17.6766C18.2838 16.5235 17.3491 15.5887 16.1959 15.5887ZM16.1959 18.8367C15.5552 18.8367 15.0359 18.3173 15.0359 17.6767C15.0359 17.036 15.5552 16.5167 16.1959 16.5167C16.8365 16.5167 17.3558 17.036 17.3558 17.6767C17.3559 18.3173 16.8365 18.8367 16.1959 18.8367Z" fill="#242424" stroke="#242424" stroke-width="0.1"/>
<path d="M20.9054 3.4088C20.8088 3.30325 20.6766 3.23717 20.5342 3.22318L5.43117 3.01438L5.01358 1.73838C4.71939 0.88539 3.92062 0.309535 3.01838 0.299988H1.464C1.20773 0.299988 1 0.507718 1 0.763985C1 1.02025 1.20773 1.22798 1.464 1.22798H3.01838C3.52288 1.23913 3.96711 1.56307 4.13199 2.03999L7.07837 10.9255L6.84639 11.4591C6.58764 12.1263 6.66535 12.8773 7.05519 13.4775C7.4413 14.0669 8.09086 14.4307 8.79519 14.4519H17.8199C18.0762 14.4519 18.2839 14.2441 18.2839 13.9879C18.2839 13.7316 18.0762 13.5239 17.8199 13.5239H8.79514C8.3974 13.5139 8.03127 13.3047 7.82074 12.9671C7.61257 12.6336 7.56981 12.2227 7.70476 11.8535L7.89037 11.4359L17.6575 10.4151C18.7303 10.2969 19.6129 9.5166 19.8615 8.46627L20.9751 3.80312C21.0253 3.66884 20.9986 3.51781 20.9054 3.4088ZM18.9567 8.25752C18.806 8.93364 18.232 9.43236 17.5415 9.48712L7.89037 10.4847L5.73278 3.94238L19.9543 4.15117L18.9567 8.25752Z" fill="#242424" stroke="#242424" stroke-width="0.1"/>
</svg>
