<svg width="48" height="48" viewBox="0 0 48 48" fill="none" xmlns="http://www.w3.org/2000/svg">
<circle cx="24" cy="24" r="24" fill="#F9C45A"/>
<path d="M31.6167 23.3333V31.95H17.0501V17.3833H25.8134H25.8341L25.8488 17.3687L27.1821 16.0354L27.2675 15.95H27.1467H17.0001C16.6332 15.95 16.2813 16.0957 16.0219 16.3552C15.7625 16.6146 15.6167 16.9665 15.6167 17.3333V32C15.6167 32.3669 15.7625 32.7187 16.0219 32.9782C16.2813 33.2376 16.6332 33.3833 17.0001 33.3833H31.6667C32.0336 33.3833 32.3855 33.2376 32.6449 32.9782C32.9043 32.7187 33.0501 32.3669 33.0501 32V22V21.8793L32.9647 21.9646L31.6314 23.298L31.6167 23.3126V23.3333Z" fill="white" stroke="white" stroke-width="0.1"/>
<path d="M31.5513 13.6115L31.5513 13.6114C31.6557 13.5068 31.7796 13.4237 31.9161 13.3671C32.0526 13.3105 32.1989 13.2813 32.3467 13.2813C32.4945 13.2813 32.6408 13.3105 32.7773 13.3671C32.9138 13.4237 33.0378 13.5068 33.1421 13.6114L35.3887 15.858L31.5513 13.6115ZM31.5513 13.6115L22.4113 22.8048L22.4012 22.8149M31.5513 13.6115L22.4012 22.8149M22.4012 22.8149L22.398 22.8288M22.4012 22.8149L22.398 22.8288M22.398 22.8288L21.658 26.0355L21.658 26.0355M22.398 22.8288L21.658 26.0355M21.658 26.0355L21.6577 26.0368M21.658 26.0355L21.6577 26.0368M21.6577 26.0368C21.6247 26.1995 21.6282 26.3674 21.6679 26.5286C21.7076 26.6898 21.7825 26.8402 21.8872 26.9689C21.992 27.0977 22.1239 27.2017 22.2737 27.2733C22.4226 27.3446 22.5854 27.3822 22.7505 27.3834C22.8353 27.3925 22.9208 27.3924 23.0055 27.3831L23.0056 27.3834M21.6577 26.0368L23.0056 27.3834M23.0056 27.3834L23.0108 27.3822M23.0056 27.3834L23.0108 27.3822M23.0108 27.3822L26.2442 26.6689L26.2585 26.6657M23.0108 27.3822L26.2585 26.6657M26.2585 26.6657L26.2689 26.6552M26.2585 26.6657L26.2689 26.6552M26.2689 26.6552L35.3887 17.4488M26.2689 26.6552L35.3887 17.4488M35.3887 17.4488C35.3887 17.4487 35.3888 17.4487 35.3888 17.4487M35.3887 17.4488L35.3888 17.4487M35.3888 17.4487C35.4934 17.3443 35.5764 17.2204 35.633 17.084C35.6896 16.9475 35.7188 16.8012 35.7188 16.6534C35.7188 16.5056 35.6896 16.3593 35.633 16.2228C35.5764 16.0863 35.4934 15.9624 35.3887 15.858L35.3888 17.4487ZM32.3561 18.4601L25.5149 25.3411L23.1669 25.8607L23.7122 23.5319L30.5468 16.6509L32.3561 18.4601ZM33.1802 17.6361L31.3704 15.8264L32.3337 14.8444L34.1559 16.6666L33.1802 17.6361Z" fill="white" stroke="white" stroke-width="0.1"/>
</svg>
