<svg width="48" height="48" viewBox="0 0 48 48" fill="none" xmlns="http://www.w3.org/2000/svg">
<circle r="24" transform="matrix(-1 0 0 1 24 24)" fill="#F9C45A"/>
<path d="M24 20C26.21 20 28 21.79 28 24C28 26.21 26.21 28 24 28C21.79 28 20 26.21 20 24C20 21.79 21.79 20 24 20ZM15.06 23C15.2865 20.9721 16.1958 19.0815 17.6387 17.6387C19.0815 16.1958 20.9721 15.2865 23 15.06V13H25V15.06C27.0279 15.2865 28.9185 16.1958 30.3613 17.6387C31.8042 19.0815 32.7135 20.9721 32.94 23H35V25H32.94C32.7135 27.0279 31.8042 28.9185 30.3613 30.3613C28.9185 31.8042 27.0279 32.7135 25 32.94V35H23V32.94C20.9721 32.7135 19.0815 31.8042 17.6387 30.3613C16.1958 28.9185 15.2865 27.0279 15.06 25H13V23H15.06ZM24 31C27.87 31 31 27.87 31 24C31 20.13 27.87 17 24 17C20.13 17 17 20.13 17 24C17 27.87 20.13 31 24 31Z" fill="white"/>
</svg>
