<svg width="143" height="132" viewBox="0 0 143 132" fill="none" xmlns="http://www.w3.org/2000/svg">
<g opacity="0.75">
<path d="M119.13 59.3146C116.683 56.7749 113.751 54.7493 110.508 53.357C107.265 51.9646 103.775 51.2337 100.244 51.2072C96.7135 51.1806 93.2132 51.8591 89.9492 53.2025C86.6852 54.546 83.7235 56.5273 81.2383 59.0299C71.2181 69.1097 71.0483 85.5224 80.8494 95.8158C85.1551 100.338 90.9257 103.194 97.1393 103.878C103.353 104.563 109.609 103.031 114.799 99.5542L133.938 119.417C134.175 119.663 134.5 119.805 134.841 119.812C135.183 119.818 135.514 119.689 135.76 119.453L140.529 114.877C140.775 114.641 140.917 114.316 140.924 113.975C140.931 113.634 140.801 113.305 140.565 113.059L121.431 93.1975C125.1 88.1806 126.88 82.0345 126.459 75.8382C126.038 69.642 123.443 63.7917 119.13 59.3146ZM113.169 91.2504C110.469 93.8403 107.06 95.5733 103.373 96.2301C99.686 96.8868 95.8867 96.438 92.4554 94.9402C89.0242 93.4424 86.1151 90.963 84.096 87.8154C82.0769 84.6679 81.0385 80.9937 81.1121 77.2573C81.1858 73.5209 82.3681 69.8902 84.5096 66.8243C86.6511 63.7585 89.6557 61.3951 93.1433 60.033C96.6309 58.671 100.445 58.3715 104.103 59.1724C107.761 59.9733 111.099 61.8386 113.695 64.5324C115.419 66.3212 116.773 68.4313 117.679 70.7421C118.585 73.0529 119.027 75.5192 118.978 78.0002C118.929 80.4812 118.391 82.9283 117.394 85.2018C116.397 87.4753 114.962 89.5306 113.169 91.2504Z" fill="url(#paint0_linear)"/>
<path d="M100.864 61.7921C95.1324 61.6633 89.9168 64.5324 87.1434 68.8639C86.2382 70.2773 88.8078 71.5262 89.7079 70.1196C92.0041 66.5338 96.3671 64.2562 101.087 64.3748C106.032 64.4985 110.533 67.3218 112.916 71.2398C113.819 72.726 116.188 71.3754 115.293 69.8976C112.396 65.1526 106.785 61.9328 100.864 61.7921Z" fill="url(#paint1_linear)"/>
<g opacity="0.5" clip-path="url(#clip0)">
<g opacity="0.5">
<path opacity="0.5" d="M102.34 22.066H26.1799V124.186H102.34V22.066Z" fill="url(#paint2_linear)"/>
</g>
<path d="M100.953 23.4523H27.1717V122.01H100.953V23.4523Z" fill="#F2F2F2"/>
<path d="M58.3107 27.6075H32.924V28.3989H58.3107V27.6075Z" fill="#E0E0E0"/>
<path opacity="0.7" d="M58.3107 31.1698H32.924V31.9612H58.3107V31.1698Z" fill="#F9A826"/>
<path d="M87.466 27.6075H62.0793V28.3989H87.466V27.6075Z" fill="#E0E0E0"/>
<path d="M91.4317 50.1703H66.045V50.9617H91.4317V50.1703Z" fill="#E0E0E0"/>
<path d="M92.0278 52.3462H66.6411V53.1376H92.0278V52.3462Z" fill="#E0E0E0"/>
<path d="M93.2184 54.5238H67.8316V55.3152H93.2184V54.5238Z" fill="#E0E0E0"/>
<path d="M91.4317 85.1987H66.045V85.9902H91.4317V85.1987Z" fill="#E0E0E0"/>
<path d="M92.0278 87.3763H66.6411V88.1678H92.0278V87.3763Z" fill="#E0E0E0"/>
<path d="M93.2184 89.5522H67.8316V90.3436H93.2184V89.5522Z" fill="#E0E0E0"/>
<g opacity="0.5">
<path opacity="0.5" d="M60.0957 42.0546H33.1227V69.3656H60.0957V42.0546Z" fill="url(#paint3_linear)"/>
</g>
<path d="M59.8409 42.6494H33.2925V68.7725H59.8409V42.6494Z" fill="#F5F5F5"/>
<g opacity="0.5">
<path opacity="0.5" d="M58.99 44.2322H34.2283V61.2516H58.99V44.2322Z" fill="url(#paint4_linear)"/>
</g>
<path d="M58.8185 44.4304H34.3981V60.8567H58.8185V44.4304Z" fill="white"/>
<path opacity="0.4" d="M32.3279 60.2636L38.4775 50.7634L41.0556 54.9187L46.6092 49.1806L51.3696 54.9187L55.5339 46.4098L66.2437 63.4292L31.5347 62.2412L32.3279 60.2636Z" fill="#F9A826"/>
<path opacity="0.4" d="M37.0883 48.5857C38.0741 48.5857 38.8733 47.7883 38.8733 46.8046C38.8733 45.821 38.0741 45.0236 37.0883 45.0236C36.1025 45.0236 35.3033 45.821 35.3033 46.8046C35.3033 47.7883 36.1025 48.5857 37.0883 48.5857Z" fill="#F9A826"/>
<g opacity="0.5">
<path opacity="0.5" d="M60.0957 77.0847H33.1227V104.396H60.0957V77.0847Z" fill="url(#paint5_linear)"/>
</g>
<path d="M59.8409 77.6779H33.2925V103.801H59.8409V77.6779Z" fill="#F5F5F5"/>
<g opacity="0.5">
<path opacity="0.5" d="M58.99 79.2623H34.2283V96.2818H58.99V79.2623Z" fill="url(#paint6_linear)"/>
</g>
<path d="M58.8185 79.4589H34.3981V95.8852H58.8185V79.4589Z" fill="white"/>
<path opacity="0.4" d="M32.3279 95.292L38.4775 85.7918L41.0556 89.9488L46.6092 84.209L51.3696 89.9488L55.5339 81.4382L66.2437 98.4576L31.5347 97.2714L32.3279 95.292Z" fill="#BDBDBD"/>
<path opacity="0.4" d="M37.0883 83.6159C38.0741 83.6159 38.8733 82.8185 38.8733 81.8348C38.8733 80.8511 38.0741 80.0537 37.0883 80.0537C36.1025 80.0537 35.3033 80.8511 35.3033 81.8348C35.3033 82.8185 36.1025 83.6159 37.0883 83.6159Z" fill="#BDBDBD"/>
<g opacity="0.5">
<path opacity="0.5" d="M57.3093 17.0205L37.361 117.182L112.06 131.995L132.009 31.8334L57.3093 17.0205Z" fill="url(#paint7_linear)"/>
</g>
<path d="M58.011 18.5726L38.7584 115.24L111.124 129.59L130.377 32.9227L58.011 18.5726Z" fill="white"/>
<path d="M113.74 34.2613L62.3832 24.0771L62.2286 24.8534L113.586 35.0375L113.74 34.2613Z" fill="#E0E0E0"/>
<path d="M99.1272 107.637L47.7701 97.4524L47.6155 98.2286L98.9726 108.413L99.1272 107.637Z" fill="#E0E0E0"/>
<path d="M86.5644 109.785L46.8793 101.915L46.7247 102.692L86.4098 110.561L86.5644 109.785Z" fill="#E0E0E0"/>
<path opacity="0.7" d="M60.7741 109.313L45.9905 106.381L45.8359 107.157L60.6195 110.089L60.7741 109.313Z" fill="#F9A826"/>
<path opacity="0.7" d="M87.1702 33.6345L61.4925 28.5426L61.3379 29.3188L87.0156 34.4107L87.1702 33.6345Z" fill="#F9A826"/>
<path d="M106.904 42.1875L60.6053 33.0066L60.4508 33.7828L106.749 42.9637L106.904 42.1875Z" fill="#E0E0E0"/>
<path opacity="0.7" d="M70.9975 39.7093L59.7153 37.472L59.5607 38.2483L70.8429 40.4855L70.9975 39.7093Z" fill="#3AD29F"/>
<path d="M110.184 52.1208L58.827 41.9366L58.6724 42.7129L110.03 52.897L110.184 52.1208Z" fill="#E0E0E0"/>
<g opacity="0.5">
<path opacity="0.5" d="M63.3519 60.7948L58.0944 87.1931L104.198 96.3354L109.455 69.9371L63.3519 60.7948Z" fill="url(#paint8_linear)"/>
</g>
<path d="M109.133 70.0733L63.6131 61.0466L58.4714 86.8631L103.992 95.8898L109.133 70.0733Z" fill="white"/>
<path d="M109.295 56.5867L57.9379 46.4026L57.7833 47.1788L109.14 57.3629L109.295 56.5867Z" fill="#E0E0E0"/>
<path d="M73.3264 66.6045L67.6844 65.4857L63.9345 84.3145L69.5764 85.4333L73.3264 66.6045Z" fill="#F9A826"/>
<path d="M82.2045 74.8224L76.5626 73.7036L74.0496 86.321L79.6916 87.4398L82.2045 74.8224Z" fill="#3AD29F"/>
<path d="M91.1618 82.6521L85.5199 81.5333L84.1669 88.3265L89.8089 89.4453L91.1618 82.6521Z" fill="#F55F44"/>
<path d="M102.669 77.6698L97.0273 76.551L94.2824 90.3336L99.9243 91.4524L102.669 77.6698Z" fill="#FDD835"/>
<path d="M86.0191 72.3718C83.8894 72.3718 83.886 75.6747 86.0191 75.6747C88.1522 75.6747 88.1522 72.3718 86.0191 72.3718Z" fill="url(#paint9_linear)"/>
<path d="M88.0961 71.3669C85.9664 71.3669 85.963 74.6698 88.0961 74.6698C90.2292 74.6698 90.2292 71.3669 88.0961 71.3669Z" fill="#F9A826"/>
<path d="M21.2207 112.51H20.6263V115.874H21.2207V112.51Z" fill="#47E6B1"/>
<path d="M22.61 114.487V113.894H19.2388V114.487H22.61Z" fill="#47E6B1"/>
<path d="M97.1228 1.34727C96.9587 1.27601 96.8266 1.14697 96.7518 0.984752C96.6769 0.822539 96.6645 0.638505 96.7169 0.467748C96.7252 0.441335 96.7304 0.414028 96.7322 0.386405C96.7376 0.30787 96.7173 0.229708 96.6745 0.163617C96.6316 0.0975264 96.5685 0.0470621 96.4945 0.019778C96.4205 -0.00750613 96.3396 -0.0101428 96.264 0.0122629C96.1884 0.0346686 96.122 0.0809112 96.075 0.144069C96.0586 0.166115 96.0449 0.190005 96.0342 0.215245C95.9628 0.378997 95.8335 0.510789 95.6709 0.585489C95.5083 0.660188 95.3239 0.672568 95.1528 0.620267C95.1263 0.611976 95.0989 0.606856 95.0712 0.605016C94.9919 0.599302 94.9129 0.619576 94.8462 0.662757C94.7795 0.705939 94.7288 0.769667 94.7017 0.84426C94.6746 0.918853 94.6726 1.00023 94.6961 1.07603C94.7196 1.15184 94.7672 1.21792 94.8318 1.26424C94.8539 1.28054 94.8778 1.29419 94.9031 1.30491C95.0672 1.37617 95.1993 1.50522 95.2742 1.66743C95.349 1.82964 95.3614 2.01368 95.309 2.18443C95.3007 2.21085 95.2956 2.23815 95.2937 2.26578C95.2874 2.34538 95.3074 2.42485 95.3507 2.49198C95.3941 2.55911 95.4583 2.61017 95.5336 2.63732C95.6088 2.66447 95.6909 2.6662 95.7673 2.64224C95.8436 2.61829 95.9099 2.56997 95.9561 2.50472C95.9724 2.48268 95.9861 2.45879 95.9968 2.43355C96.0683 2.2698 96.1976 2.138 96.3601 2.0633C96.5227 1.9886 96.7071 1.97622 96.8783 2.02853C96.9047 2.03682 96.9321 2.04194 96.9598 2.04378C97.0385 2.04915 97.1168 2.02894 97.1831 1.98618C97.2493 1.94342 97.2999 1.8804 97.3272 1.80656C97.3546 1.73272 97.3572 1.65203 97.3347 1.57657C97.3123 1.50111 97.2659 1.43493 97.2027 1.38795C97.1779 1.37103 97.1511 1.35736 97.1228 1.34727Z" fill="#4D8AF0"/>
<path d="M23.342 26.284C23.1779 26.2128 23.0458 26.0837 22.9709 25.9215C22.8961 25.7593 22.8837 25.5753 22.9361 25.4045C22.9444 25.3781 22.9495 25.3508 22.9514 25.3232C22.9567 25.2446 22.9365 25.1665 22.8936 25.1004C22.8508 25.0343 22.7876 24.9838 22.7136 24.9565C22.6396 24.9293 22.5588 24.9266 22.4831 24.949C22.4075 24.9714 22.3412 25.0177 22.2941 25.0808C22.2778 25.1029 22.2641 25.1268 22.2533 25.152C22.1819 25.3158 22.0526 25.4476 21.89 25.5223C21.7275 25.597 21.543 25.6093 21.3719 25.557C21.3454 25.5487 21.3181 25.5436 21.2904 25.5418C21.2117 25.5364 21.1334 25.5566 21.0671 25.5994C21.0009 25.6421 20.9503 25.7052 20.923 25.779C20.8956 25.8528 20.893 25.9335 20.9154 26.009C20.9379 26.0844 20.9842 26.1506 21.0475 26.1976C21.0696 26.2139 21.0936 26.2276 21.1189 26.2383C21.283 26.3095 21.415 26.4386 21.4899 26.6008C21.5648 26.763 21.5772 26.9471 21.5248 27.1178C21.5164 27.1442 21.5113 27.1715 21.5095 27.1992C21.5041 27.2777 21.5243 27.3559 21.5672 27.4219C21.6101 27.488 21.6732 27.5385 21.7472 27.5658C21.8212 27.5931 21.9021 27.5957 21.9777 27.5733C22.0533 27.5509 22.1196 27.5046 22.1667 27.4415C22.1831 27.4194 22.1968 27.3956 22.2075 27.3703C22.2789 27.2066 22.4082 27.0748 22.5708 27.0001C22.7334 26.9254 22.9178 26.913 23.0889 26.9653C23.1154 26.9736 23.1428 26.9787 23.1704 26.9805C23.2492 26.9859 23.3275 26.9657 23.3937 26.9229C23.46 26.8802 23.5105 26.8172 23.5379 26.7433C23.5652 26.6695 23.5679 26.5888 23.5454 26.5133C23.523 26.4379 23.4766 26.3717 23.4133 26.3247C23.3912 26.3084 23.3673 26.2948 23.342 26.284Z" fill="#FDD835"/>
<path d="M128.262 129.194C128.098 129.122 127.966 128.993 127.891 128.831C127.816 128.669 127.804 128.485 127.856 128.314C127.864 128.288 127.869 128.26 127.871 128.233C127.877 128.154 127.856 128.076 127.813 128.01C127.771 127.944 127.707 127.893 127.633 127.866C127.559 127.839 127.479 127.836 127.403 127.859C127.327 127.881 127.261 127.927 127.214 127.99C127.198 128.012 127.184 128.036 127.173 128.062C127.102 128.225 126.972 128.357 126.81 128.432C126.647 128.507 126.463 128.519 126.292 128.467C126.265 128.458 126.238 128.453 126.21 128.451C126.132 128.446 126.053 128.466 125.987 128.509C125.921 128.552 125.87 128.615 125.843 128.689C125.815 128.762 125.813 128.843 125.835 128.919C125.858 128.994 125.904 129.06 125.967 129.107C125.989 129.123 126.013 129.137 126.039 129.148C126.203 129.219 126.335 129.348 126.41 129.51C126.485 129.673 126.497 129.857 126.445 130.027C126.436 130.054 126.431 130.081 126.429 130.109C126.424 130.187 126.444 130.265 126.487 130.331C126.53 130.398 126.593 130.448 126.667 130.475C126.741 130.503 126.822 130.505 126.898 130.483C126.973 130.46 127.039 130.414 127.087 130.351C127.103 130.329 127.117 130.305 127.127 130.28C127.199 130.116 127.328 129.984 127.491 129.91C127.653 129.835 127.838 129.823 128.009 129.875C128.035 129.883 128.063 129.888 128.09 129.89C128.169 129.895 128.247 129.875 128.314 129.832C128.38 129.79 128.43 129.727 128.458 129.653C128.485 129.579 128.488 129.498 128.465 129.423C128.443 129.347 128.396 129.281 128.333 129.234C128.311 129.218 128.287 129.204 128.262 129.194Z" fill="#FDD835"/>
<path d="M54.5421 13.9538C55.1996 13.9538 55.7326 13.4219 55.7326 12.7658C55.7326 12.1097 55.1996 11.5779 54.5421 11.5779C53.8846 11.5779 53.3516 12.1097 53.3516 12.7658C53.3516 13.4219 53.8846 13.9538 54.5421 13.9538Z" fill="#F55F44"/>
<path d="M139.826 28.7956C140.483 28.7956 141.016 28.2637 141.016 27.6076C141.016 26.9515 140.483 26.4197 139.826 26.4197C139.168 26.4197 138.635 26.9515 138.635 27.6076C138.635 28.2637 139.168 28.7956 139.826 28.7956Z" fill="#F55F44"/>
<path d="M133.083 64.2206C133.741 64.2206 134.274 63.6888 134.274 63.0327C134.274 62.3766 133.741 61.8447 133.083 61.8447C132.426 61.8447 131.893 62.3766 131.893 63.0327C131.893 63.6888 132.426 64.2206 133.083 64.2206Z" fill="#4D8AF0"/>
<path opacity="0.5" d="M1.19053 6.0363C1.84805 6.0363 2.38107 5.50444 2.38107 4.84835C2.38107 4.19226 1.84805 3.6604 1.19053 3.6604C0.533021 3.6604 0 4.19226 0 4.84835C0 5.50444 0.533021 6.0363 1.19053 6.0363Z" fill="#47E6B1"/>
</g>
<path d="M121.207 58.3113C118.76 55.7716 115.828 53.746 112.585 52.3537C109.342 50.9613 105.852 50.2304 102.321 50.2039C98.7906 50.1773 95.2902 50.8558 92.0262 52.1992C88.7622 53.5427 85.8005 55.524 83.3153 58.0266C73.2951 68.1064 73.1253 84.5192 82.9264 94.8125C87.2324 99.3345 93.003 102.19 99.2167 102.874C105.43 103.558 111.686 102.026 116.876 98.5492L136.013 118.414C136.25 118.66 136.575 118.802 136.917 118.808C137.259 118.815 137.589 118.686 137.835 118.45L142.604 113.874C142.851 113.638 142.993 113.313 142.999 112.972C143.006 112.631 142.877 112.301 142.64 112.056L123.501 92.1925C127.17 87.1766 128.952 81.0312 128.532 74.8354C128.112 68.6395 125.519 62.7891 121.207 58.3113ZM115.246 90.2335C112.546 92.8235 109.137 94.5564 105.45 95.2132C101.763 95.87 97.9637 95.4211 94.5325 93.9233C91.1012 92.4255 88.1921 89.9461 86.173 86.7986C84.1539 83.6511 83.1155 79.9768 83.1892 76.2404C83.2628 72.5041 84.4451 68.8734 86.5866 65.8075C88.7282 62.7416 91.7327 60.3782 95.2203 59.0162C98.7079 57.6541 102.522 57.3546 106.18 58.1555C109.838 58.9564 113.176 60.8217 115.772 63.5156C117.496 65.3044 118.85 67.4144 119.756 69.7252C120.662 72.036 121.104 74.5024 121.055 76.9834C121.006 79.4644 120.468 81.9115 119.471 84.185C118.474 86.4584 117.039 88.5137 115.246 90.2335Z" fill="#F9A826"/>
<path d="M102.941 60.789C97.2094 60.6602 91.9938 63.5292 89.2204 67.8608C88.3152 69.2741 90.8848 70.5231 91.7849 69.1165C94.0811 65.5306 98.4441 63.253 103.164 63.3716C108.109 63.4953 112.61 66.3186 114.993 70.2367C115.896 71.7229 118.265 70.3722 117.37 68.8945C114.468 64.1359 108.863 60.9161 102.941 60.789Z" fill="#F9A826"/>
</g>
<defs>
<linearGradient id="paint0_linear" x1="107.267" y1="119.812" x2="107.267" y2="51.2074" gradientUnits="userSpaceOnUse">
<stop stop-color="#B3B3B3" stop-opacity="0.25"/>
<stop offset="0.54" stop-color="#B3B3B3" stop-opacity="0.1"/>
<stop offset="1" stop-color="#B3B3B3" stop-opacity="0.05"/>
</linearGradient>
<linearGradient id="paint1_linear" x1="22204.2" y1="4956.08" x2="22204.2" y2="4354.51" gradientUnits="userSpaceOnUse">
<stop stop-opacity="0.12"/>
<stop offset="0.55" stop-opacity="0.09"/>
<stop offset="1" stop-opacity="0.02"/>
</linearGradient>
<linearGradient id="paint2_linear" x1="64.26" y1="124.186" x2="64.26" y2="22.066" gradientUnits="userSpaceOnUse">
<stop stop-color="#808080" stop-opacity="0.25"/>
<stop offset="0.54" stop-color="#808080" stop-opacity="0.12"/>
<stop offset="1" stop-color="#808080" stop-opacity="0.1"/>
</linearGradient>
<linearGradient id="paint3_linear" x1="7435.59" y1="11221" x2="7435.59" y2="6819.57" gradientUnits="userSpaceOnUse">
<stop stop-color="#808080" stop-opacity="0.25"/>
<stop offset="0.54" stop-color="#808080" stop-opacity="0.12"/>
<stop offset="1" stop-color="#808080" stop-opacity="0.1"/>
</linearGradient>
<linearGradient id="paint4_linear" x1="6829.84" y1="6195.73" x2="6829.84" y2="4486.47" gradientUnits="userSpaceOnUse">
<stop stop-color="#808080" stop-opacity="0.25"/>
<stop offset="0.54" stop-color="#808080" stop-opacity="0.12"/>
<stop offset="1" stop-color="#808080" stop-opacity="0.1"/>
</linearGradient>
<linearGradient id="paint5_linear" x1="7435.59" y1="16901.5" x2="7435.59" y2="12500.1" gradientUnits="userSpaceOnUse">
<stop stop-color="#808080" stop-opacity="0.25"/>
<stop offset="0.54" stop-color="#808080" stop-opacity="0.12"/>
<stop offset="1" stop-color="#808080" stop-opacity="0.1"/>
</linearGradient>
<linearGradient id="paint6_linear" x1="6829.84" y1="9748.87" x2="6829.84" y2="8039.6" gradientUnits="userSpaceOnUse">
<stop stop-color="#808080" stop-opacity="0.25"/>
<stop offset="0.54" stop-color="#808080" stop-opacity="0.12"/>
<stop offset="1" stop-color="#808080" stop-opacity="0.1"/>
</linearGradient>
<linearGradient id="paint7_linear" x1="57806.5" y1="70827.9" x2="66714.9" y2="25904.3" gradientUnits="userSpaceOnUse">
<stop stop-color="#808080" stop-opacity="0.25"/>
<stop offset="0.54" stop-color="#808080" stop-opacity="0.12"/>
<stop offset="1" stop-color="#808080" stop-opacity="0.1"/>
</linearGradient>
<linearGradient id="paint8_linear" x1="13069" y1="29821" x2="14518" y2="22513.5" gradientUnits="userSpaceOnUse">
<stop stop-color="#808080" stop-opacity="0.25"/>
<stop offset="0.54" stop-color="#808080" stop-opacity="0.12"/>
<stop offset="1" stop-color="#808080" stop-opacity="0.1"/>
</linearGradient>
<linearGradient id="paint9_linear" x1="86.0191" y1="75.673" x2="86.0191" y2="72.3718" gradientUnits="userSpaceOnUse">
<stop stop-opacity="0.12"/>
<stop offset="0.55" stop-opacity="0.09"/>
<stop offset="1" stop-opacity="0.02"/>
</linearGradient>
<clipPath id="clip0">
<rect width="143" height="132" fill="white"/>
</clipPath>
</defs>
</svg>
