<svg width="186" height="182" viewBox="0 0 186 182" fill="none" xmlns="http://www.w3.org/2000/svg">
<g opacity="0.2">
<path opacity="0.1" d="M145.093 134.672C146.001 133.76 144.95 131.227 142.745 129.015C140.541 126.802 138.018 125.747 137.11 126.658C136.202 127.57 137.253 130.103 139.457 132.315C141.661 134.528 144.185 135.583 145.093 134.672Z" fill="#F9A826"/>
<path d="M141.501 131.035C142.19 131.035 142.749 130.301 142.749 129.395C142.749 128.489 142.19 127.754 141.501 127.754C140.811 127.754 140.253 128.489 140.253 129.395C140.253 130.301 140.811 131.035 141.501 131.035Z" fill="#3F3D56"/>
<path d="M141.501 129.03C142.19 129.03 142.749 128.296 142.749 127.39C142.749 126.484 142.19 125.75 141.501 125.75C140.811 125.75 140.253 126.484 140.253 127.39C140.253 128.296 140.811 129.03 141.501 129.03Z" fill="#3F3D56"/>
<path d="M141.501 127.026C142.19 127.026 142.749 126.291 142.749 125.385C142.749 124.479 142.19 123.745 141.501 123.745C140.811 123.745 140.253 124.479 140.253 125.385C140.253 126.291 140.811 127.026 141.501 127.026Z" fill="#3F3D56"/>
<path d="M141.501 125.021C142.19 125.021 142.749 124.286 142.749 123.38C142.749 122.474 142.19 121.74 141.501 121.74C140.811 121.74 140.253 122.474 140.253 123.38C140.253 124.286 140.811 125.021 141.501 125.021Z" fill="#3F3D56"/>
<path d="M141.501 123.016C142.19 123.016 142.749 122.282 142.749 121.376C142.749 120.47 142.19 119.735 141.501 119.735C140.811 119.735 140.253 120.47 140.253 121.376C140.253 122.282 140.811 123.016 141.501 123.016Z" fill="#3F3D56"/>
<path d="M141.501 121.011C142.19 121.011 142.749 120.277 142.749 119.371C142.749 118.465 142.19 117.731 141.501 117.731C140.811 117.731 140.253 118.465 140.253 119.371C140.253 120.277 140.811 121.011 141.501 121.011Z" fill="#3F3D56"/>
<path d="M141.501 119.007C142.19 119.007 142.749 118.272 142.749 117.366C142.749 116.46 142.19 115.726 141.501 115.726C140.811 115.726 140.253 116.46 140.253 117.366C140.253 118.272 140.811 119.007 141.501 119.007Z" fill="#3F3D56"/>
<path d="M146.173 103.647C146.344 103.43 146.499 103.2 146.638 102.961L143.358 102.42L146.906 102.446C147.246 101.703 147.432 100.898 147.452 100.08C147.472 99.2627 147.326 98.4496 147.022 97.6906L142.264 100.169L146.65 96.9305C146.239 96.2166 145.686 95.5953 145.025 95.1054C144.365 94.6155 143.611 94.2674 142.81 94.0829C142.01 93.8984 141.18 93.8814 140.372 94.033C139.565 94.1846 138.798 94.5015 138.118 94.964C137.438 95.4265 136.86 96.0247 136.42 96.7212C135.981 97.4177 135.689 98.1976 135.563 99.0123C135.437 99.827 135.48 100.659 135.688 101.457C135.896 102.254 136.266 103 136.775 103.647C136.509 103.986 136.28 104.353 136.093 104.741L140.35 106.96L135.814 105.43C135.495 106.376 135.417 107.387 135.585 108.371C135.753 109.355 136.163 110.281 136.778 111.066C136.084 111.951 135.653 113.015 135.533 114.134C135.413 115.254 135.609 116.385 136.099 117.398C136.59 118.411 137.354 119.265 138.305 119.863C139.256 120.461 140.355 120.778 141.477 120.778C142.599 120.778 143.699 120.461 144.65 119.863C145.601 119.265 146.365 118.411 146.855 117.398C147.345 116.385 147.542 115.254 147.422 114.134C147.302 113.015 146.87 111.951 146.176 111.066C147.005 110.008 147.456 108.701 147.456 107.356C147.456 106.01 147.005 104.703 146.176 103.645L146.173 103.647Z" fill="#F9A826"/>
<path opacity="0.1" d="M135.495 107.358C135.493 108.704 135.944 110.012 136.775 111.069C136.081 111.954 135.65 113.017 135.53 114.137C135.41 115.257 135.606 116.388 136.096 117.401C136.586 118.414 137.351 119.268 138.302 119.866C139.253 120.463 140.352 120.78 141.474 120.78C142.596 120.78 143.695 120.463 144.646 119.866C145.597 119.268 146.362 118.414 146.852 117.401C147.342 116.388 147.538 115.257 147.418 114.137C147.298 113.017 146.867 111.954 146.173 111.069C146.975 110.048 135.495 106.684 135.495 107.358Z" fill="black"/>
<g filter="url(#filter0_f)">
<path d="M138.516 47V131.064L110.135 127.094L75.6346 134.159L75.3566 134.217L47.906 126.627V53.5383L76.4034 47L107.576 53.5383L108.761 53.2873L138.516 47Z" fill="#444053" fill-opacity="0.75"/>
</g>
<path d="M133.747 51.5908V126.806L108.354 123.254L77.4852 129.576L77.2363 129.626L52.675 122.836V57.4403L78.1738 51.5908L106.064 57.4403L107.125 57.2161L133.747 51.5908Z" fill="white"/>
<path opacity="0.1" d="M110.135 127.094L75.6345 134.159L76.4034 47L107.576 53.5383L108.761 53.2873L110.135 127.094Z" fill="black"/>
<g opacity="0.3">
<path opacity="0.3" d="M106.69 63.1123L106.704 87.5726H116.823V77.5316H134.154L136.19 74.9116" stroke="#444053" stroke-width="3" stroke-miterlimit="10"/>
<path opacity="0.3" d="M50.3486 70.8765H87.9768L90.3032 69.8257H91.2337V93.4104H107.518L108.216 95.512V106.137H120.778V119.272" stroke="#444053" stroke-width="3" stroke-miterlimit="10"/>
<path opacity="0.3" d="M96.2039 119.272V93.4104" stroke="#444053" stroke-width="3" stroke-miterlimit="10"/>
<path opacity="0.3" d="M136.19 112.344H96.2039" stroke="#444053" stroke-width="3" stroke-miterlimit="10"/>
<path opacity="0.3" d="M126.175 63.1123V119.272" stroke="#444053" stroke-width="3" stroke-miterlimit="10"/>
<path opacity="0.3" d="M50.2324 107.379H136.19" stroke="#444053" stroke-width="3" stroke-miterlimit="10"/>
<path opacity="0.3" d="M60.6938 119.272V63.1123" stroke="#444053" stroke-width="3" stroke-miterlimit="10"/>
<path opacity="0.3" d="M80.6746 63.1123V119.272" stroke="#444053" stroke-width="3" stroke-miterlimit="10"/>
<path opacity="0.3" d="M50.3486 77.2981L116.823 77.5316" stroke="#444053" stroke-width="3" stroke-miterlimit="10"/>
<path opacity="0.3" d="M69.6956 63.2139V119.272" stroke="#444053" stroke-width="3" stroke-miterlimit="10"/>
<path opacity="0.3" d="M50.2324 90.2954H80.6746L96.204 107.379" stroke="#444053" stroke-width="3" stroke-miterlimit="10"/>
<path opacity="0.3" d="M99.5679 63.1123V93.4104" stroke="#444053" stroke-width="3" stroke-miterlimit="10"/>
<path opacity="0.3" d="M96.2039 98.8373H136.19" stroke="#444053" stroke-width="3" stroke-miterlimit="10"/>
</g>
<path opacity="0.1" d="M100.163 134.109C102.136 133.255 103.452 131.902 103.102 131.086C102.752 130.27 100.868 130.3 98.8945 131.153C96.9209 132.006 95.6049 133.36 95.955 134.176C96.3052 134.992 98.1889 134.962 100.163 134.109Z" fill="#F9A826"/>
<path d="M99.4828 133.125C99.9582 133.125 100.344 132.619 100.344 131.995C100.344 131.371 99.9582 130.865 99.4828 130.865C99.0074 130.865 98.6221 131.371 98.6221 131.995C98.6221 132.619 99.0074 133.125 99.4828 133.125Z" fill="#3F3D56"/>
<path d="M99.4828 131.743C99.9582 131.743 100.344 131.237 100.344 130.612C100.344 129.988 99.9582 129.482 99.4828 129.482C99.0074 129.482 98.6221 129.988 98.6221 130.612C98.6221 131.237 99.0074 131.743 99.4828 131.743Z" fill="#3F3D56"/>
<path d="M99.4828 130.361C99.9582 130.361 100.344 129.855 100.344 129.231C100.344 128.607 99.9582 128.101 99.4828 128.101C99.0074 128.101 98.6221 128.607 98.6221 129.231C98.6221 129.855 99.0074 130.361 99.4828 130.361Z" fill="#3F3D56"/>
<path d="M99.4828 128.98C99.9582 128.98 100.344 128.474 100.344 127.85C100.344 127.226 99.9582 126.72 99.4828 126.72C99.0074 126.72 98.6221 127.226 98.6221 127.85C98.6221 128.474 99.0074 128.98 99.4828 128.98Z" fill="#3F3D56"/>
<path d="M99.4828 127.598C99.9582 127.598 100.344 127.092 100.344 126.468C100.344 125.843 99.9582 125.337 99.4828 125.337C99.0074 125.337 98.6221 125.843 98.6221 126.468C98.6221 127.092 99.0074 127.598 99.4828 127.598Z" fill="#3F3D56"/>
<path d="M99.4828 126.216C99.9582 126.216 100.344 125.71 100.344 125.086C100.344 124.462 99.9582 123.956 99.4828 123.956C99.0074 123.956 98.6221 124.462 98.6221 125.086C98.6221 125.71 99.0074 126.216 99.4828 126.216Z" fill="#3F3D56"/>
<path d="M99.4828 124.835C99.9582 124.835 100.344 124.329 100.344 123.705C100.344 123.081 99.9582 122.575 99.4828 122.575C99.0074 122.575 98.6221 123.081 98.6221 123.705C98.6221 124.329 99.0074 124.835 99.4828 124.835Z" fill="#3F3D56"/>
<path d="M96.2621 114.249C96.1448 114.101 96.0375 113.945 95.9411 113.782L98.2023 113.408L95.7597 113.427C95.5254 112.915 95.3976 112.36 95.384 111.797C95.3704 111.233 95.4713 110.673 95.6806 110.15L98.9607 111.852L95.9365 109.62C96.2197 109.128 96.6008 108.7 97.0561 108.362C97.5114 108.025 98.031 107.785 98.5827 107.658C99.1343 107.531 99.7061 107.519 100.262 107.624C100.819 107.728 101.348 107.947 101.816 108.265C102.285 108.584 102.683 108.996 102.986 109.476C103.289 109.956 103.49 110.494 103.577 111.055C103.663 111.616 103.634 112.19 103.491 112.739C103.347 113.289 103.092 113.803 102.742 114.249C102.924 114.483 103.08 114.736 103.207 115.003L100.275 116.534L103.404 115.483C103.624 116.135 103.678 116.832 103.562 117.51C103.446 118.188 103.163 118.827 102.74 119.368C103.218 119.978 103.516 120.711 103.598 121.483C103.681 122.254 103.546 123.034 103.208 123.733C102.87 124.431 102.343 125.02 101.688 125.432C101.032 125.844 100.274 126.062 99.501 126.062C98.7275 126.062 97.9697 125.844 97.3142 125.432C96.6586 125.02 96.1318 124.431 95.7939 123.733C95.456 123.034 95.3208 122.254 95.4036 121.483C95.4864 120.711 95.7839 119.978 96.2621 119.368C95.691 118.638 95.3804 117.738 95.3804 116.81C95.3804 115.882 95.691 114.982 96.2621 114.253V114.249Z" fill="#F9A826"/>
<path opacity="0.1" d="M103.621 116.802C103.623 117.73 103.312 118.632 102.74 119.36C103.218 119.971 103.516 120.704 103.598 121.475C103.681 122.247 103.546 123.027 103.208 123.725C102.87 124.424 102.343 125.013 101.688 125.425C101.032 125.836 100.274 126.055 99.501 126.055C98.7275 126.055 97.9697 125.836 97.3142 125.425C96.6586 125.013 96.1318 124.424 95.7939 123.725C95.456 123.027 95.3208 122.247 95.4036 121.475C95.4864 120.704 95.7839 119.971 96.2621 119.36C95.7096 118.66 103.621 116.342 103.621 116.802Z" fill="black"/>
<path opacity="0.1" d="M49.5973 132.103C50.5054 131.191 49.4544 128.659 47.25 126.446C45.0455 124.233 42.5224 123.178 41.6144 124.09C40.7063 125.001 41.7573 127.534 43.9617 129.747C46.1661 131.959 48.6893 133.014 49.5973 132.103Z" fill="#F9A826"/>
<path d="M46.0054 128.466C46.6947 128.466 47.2535 127.732 47.2535 126.826C47.2535 125.92 46.6947 125.186 46.0054 125.186C45.3161 125.186 44.7573 125.92 44.7573 126.826C44.7573 127.732 45.3161 128.466 46.0054 128.466Z" fill="#3F3D56"/>
<path d="M46.0054 126.462C46.6947 126.462 47.2535 125.727 47.2535 124.821C47.2535 123.915 46.6947 123.181 46.0054 123.181C45.3161 123.181 44.7573 123.915 44.7573 124.821C44.7573 125.727 45.3161 126.462 46.0054 126.462Z" fill="#3F3D56"/>
<path d="M46.0054 124.457C46.6947 124.457 47.2535 123.722 47.2535 122.816C47.2535 121.91 46.6947 121.176 46.0054 121.176C45.3161 121.176 44.7573 121.91 44.7573 122.816C44.7573 123.722 45.3161 124.457 46.0054 124.457Z" fill="#3F3D56"/>
<path d="M46.0054 122.452C46.6947 122.452 47.2535 121.718 47.2535 120.812C47.2535 119.906 46.6947 119.171 46.0054 119.171C45.3161 119.171 44.7573 119.906 44.7573 120.812C44.7573 121.718 45.3161 122.452 46.0054 122.452Z" fill="#3F3D56"/>
<path d="M46.0054 120.448C46.6947 120.448 47.2535 119.713 47.2535 118.807C47.2535 117.901 46.6947 117.167 46.0054 117.167C45.3161 117.167 44.7573 117.901 44.7573 118.807C44.7573 119.713 45.3161 120.448 46.0054 120.448Z" fill="#3F3D56"/>
<path d="M46.0054 118.443C46.6947 118.443 47.2535 117.709 47.2535 116.803C47.2535 115.897 46.6947 115.162 46.0054 115.162C45.3161 115.162 44.7573 115.897 44.7573 116.803C44.7573 117.709 45.3161 118.443 46.0054 118.443Z" fill="#3F3D56"/>
<path d="M46.0054 116.438C46.6947 116.438 47.2535 115.704 47.2535 114.798C47.2535 113.892 46.6947 113.157 46.0054 113.157C45.3161 113.157 44.7573 113.892 44.7573 114.798C44.7573 115.704 45.3161 116.438 46.0054 116.438Z" fill="#3F3D56"/>
<path d="M50.6779 101.079C50.8486 100.861 51.0041 100.632 51.1431 100.392L47.863 99.8518L51.4107 99.8775C51.751 99.1343 51.9368 98.3294 51.9568 97.5118C51.9768 96.6941 51.8305 95.881 51.527 95.122L46.7685 97.6007L51.1548 94.3619C50.7439 93.648 50.1909 93.0267 49.5303 92.5368C48.8697 92.0469 48.1156 91.6988 47.3151 91.5143C46.5145 91.3298 45.6847 91.3128 44.8773 91.4644C44.07 91.616 43.3024 91.9329 42.6224 92.3954C41.9425 92.8579 41.3647 93.4561 40.9252 94.1526C40.4857 94.8491 40.1938 95.629 40.0678 96.4437C39.9418 97.2584 39.9844 98.0905 40.1929 98.8879C40.4014 99.6854 40.7713 100.431 41.2795 101.079C41.0136 101.418 40.7851 101.785 40.5979 102.173L44.8551 104.391L40.3188 102.862C40.0002 103.808 39.9216 104.818 40.09 105.802C40.2583 106.786 40.6684 107.713 41.283 108.498C40.5894 109.383 40.1579 110.446 40.0379 111.566C39.9178 112.686 40.1141 113.817 40.6043 114.83C41.0945 115.843 41.8588 116.697 42.8098 117.294C43.7609 117.892 44.8602 118.209 45.9822 118.209C47.1042 118.209 48.2035 117.892 49.1545 117.294C50.1055 116.697 50.8698 115.843 51.36 114.83C51.8502 113.817 52.0465 112.686 51.9265 111.566C51.8065 110.446 51.375 109.383 50.6813 108.498C51.5102 107.44 51.9608 106.133 51.9608 104.787C51.9608 103.441 51.5102 102.134 50.6813 101.077L50.6779 101.079Z" fill="#F9A826"/>
<path opacity="0.1" d="M40 104.789C39.9978 106.136 40.4486 107.443 41.2795 108.5C40.5858 109.385 40.1543 110.448 40.0343 111.568C39.9143 112.688 40.1106 113.819 40.6008 114.832C41.091 115.845 41.8553 116.699 42.8063 117.297C43.7573 117.894 44.8567 118.211 45.9786 118.211C47.1006 118.211 48.2 117.894 49.151 117.297C50.102 116.699 50.8663 115.845 51.3565 114.832C51.8467 113.819 52.043 112.688 51.923 111.568C51.803 110.448 51.3715 109.385 50.6778 108.5C51.4792 107.48 40 104.116 40 104.789Z" fill="black"/>
</g>
<g opacity="0.4">
<path d="M108.158 98.606H96.4097V93.4688L107.518 93.4104L108.216 95.3952L108.158 98.606Z" fill="#F9A826"/>
<path d="M102.342 71.9857C100.636 71.9857 99.001 72.6657 97.7952 73.8761C96.5893 75.0865 95.9119 76.7282 95.9119 78.44C95.9119 82.0045 102.342 93.5855 102.342 93.5855C102.342 93.5855 108.772 82.0092 108.772 78.44C108.772 76.7282 108.094 75.0865 106.888 73.8761C105.683 72.6657 104.047 71.9857 102.342 71.9857V71.9857ZM102.342 81.1931C101.782 81.1931 101.235 81.0265 100.77 80.7145C100.305 80.4025 99.9424 79.9591 99.7283 79.4402C99.5142 78.9214 99.4582 78.3504 99.5674 77.7996C99.6765 77.2488 99.9459 76.7429 100.342 76.3457C100.737 75.9486 101.241 75.6782 101.79 75.5686C102.339 75.4591 102.907 75.5153 103.424 75.7302C103.941 75.9451 104.383 76.3091 104.694 76.776C105.005 77.243 105.171 77.792 105.171 78.3536C105.17 79.1065 104.872 79.8284 104.342 80.3606C103.811 80.8929 103.092 81.1919 102.342 81.1919V81.1931Z" fill="#F9A826"/>
<path opacity="0.1" d="M102.342 71.9857C100.636 71.9857 99.001 72.6657 97.7952 73.8761C96.5893 75.0865 95.9119 76.7282 95.9119 78.44C95.9119 82.0045 102.342 93.5855 102.342 93.5855C102.342 93.5855 108.772 82.0092 108.772 78.44C108.772 76.7282 108.094 75.0865 106.888 73.8761C105.683 72.6657 104.047 71.9857 102.342 71.9857V71.9857ZM102.342 81.1931C101.782 81.1931 101.235 81.0265 100.77 80.7145C100.305 80.4025 99.9424 79.9591 99.7283 79.4402C99.5142 78.9214 99.4582 78.3504 99.5674 77.7996C99.6765 77.2488 99.9459 76.7429 100.342 76.3457C100.737 75.9486 101.241 75.6782 101.79 75.5686C102.339 75.4591 102.907 75.5153 103.424 75.7302C103.941 75.9451 104.383 76.3091 104.694 76.776C105.005 77.243 105.171 77.792 105.171 78.3536C105.17 79.1065 104.872 79.8284 104.342 80.3606C103.811 80.8929 103.092 81.1919 102.342 81.1919V81.1931Z" fill="black"/>
<path d="M102.342 72.9198C100.636 72.9198 99.001 73.5998 97.7952 74.8102C96.5893 76.0206 95.9119 77.6623 95.9119 79.3741C95.9119 82.9386 102.342 94.5196 102.342 94.5196C102.342 94.5196 108.772 82.9433 108.772 79.3741C108.772 77.6623 108.094 76.0206 106.888 74.8102C105.683 73.5998 104.047 72.9198 102.342 72.9198V72.9198ZM102.342 82.1272C101.782 82.1272 101.235 81.9606 100.77 81.6486C100.305 81.3366 99.9424 80.8931 99.7283 80.3743C99.5142 79.8554 99.4582 79.2845 99.5674 78.7337C99.6765 78.1829 99.9459 77.6769 100.342 77.2798C100.737 76.8827 101.241 76.6123 101.79 76.5027C102.339 76.3932 102.907 76.4494 103.424 76.6643C103.941 76.8792 104.383 77.2432 104.694 77.7101C105.005 78.1771 105.171 78.7261 105.171 79.2877C105.17 80.0405 104.872 80.7625 104.342 81.2947C103.811 81.827 103.092 82.126 102.342 82.126V82.1272Z" fill="#F9A826"/>
</g>
<defs>
<filter id="filter0_f" x="0.906006" y="0" width="184.61" height="181.217" filterUnits="userSpaceOnUse" color-interpolation-filters="sRGB">
<feFlood flood-opacity="0" result="BackgroundImageFix"/>
<feBlend mode="normal" in="SourceGraphic" in2="BackgroundImageFix" result="shape"/>
<feGaussianBlur stdDeviation="23.5" result="effect1_foregroundBlur"/>
</filter>
</defs>
</svg>
