<svg width="16" height="16" viewBox="0 0 16 16" fill="none" xmlns="http://www.w3.org/2000/svg">
<path d="M8 0C3.58862 0 0 3.58862 0 8C0 12.4114 3.58862 16 8 16C12.4114 16 16 12.4114 16 8C16 3.58862 12.4114 0 8 0Z" fill="#43A75F"/>
<path d="M12.0542 6.30477L7.72081 10.638C7.59081 10.768 7.42015 10.8334 7.2495 10.8334C7.07885 10.8334 6.90819 10.768 6.77819 10.638L4.61157 8.47137C4.35083 8.21075 4.35083 7.78937 4.61157 7.52875C4.87219 7.26801 5.29345 7.26801 5.55419 7.52875L7.2495 9.22405L11.1115 5.36215C11.3722 5.10141 11.7934 5.10141 12.0542 5.36215C12.3148 5.62277 12.3148 6.04403 12.0542 6.30477Z" fill="white"/>
</svg>
