<svg width="20" height="20" viewBox="0 0 20 20" fill="none" xmlns="http://www.w3.org/2000/svg">
<g clip-path="url(#clip0)">
<path d="M6.37996 15.5562C5.22678 15.5562 4.29199 16.491 4.29199 17.6441C4.29199 18.7973 5.22682 19.7321 6.37996 19.7321C7.53313 19.7321 8.46792 18.7972 8.46792 17.6441C8.46796 16.491 7.53313 15.5562 6.37996 15.5562ZM6.37996 18.8041C5.73931 18.8041 5.21999 18.2848 5.21999 17.6442C5.21999 17.0035 5.73931 16.4842 6.37996 16.4842C7.0206 16.4842 7.53993 17.0035 7.53993 17.6442C7.53997 18.2848 7.0206 18.8041 6.37996 18.8041Z" fill="#242424" stroke="#242424" stroke-width="0.1"/>
<path d="M15.1959 15.5562C14.0427 15.5562 13.1079 16.491 13.1079 17.6441C13.1079 18.7973 14.0427 19.7321 15.1959 19.7321C16.349 19.7321 17.2838 18.7972 17.2838 17.6441C17.2838 16.491 16.3491 15.5562 15.1959 15.5562ZM15.1959 18.8041C14.5552 18.8041 14.0359 18.2848 14.0359 17.6442C14.0359 17.0035 14.5552 16.4842 15.1959 16.4842C15.8365 16.4842 16.3558 17.0035 16.3558 17.6442C16.3559 18.2848 15.8365 18.8041 15.1959 18.8041Z" fill="#242424" stroke="#242424" stroke-width="0.1"/>
<path d="M19.9054 3.37639C19.8088 3.27084 19.6766 3.20476 19.5342 3.19077L4.43117 2.98198L4.01358 1.70597C3.71939 0.85298 2.92062 0.277125 2.01838 0.267578H0.463997C0.207731 0.267578 0 0.475309 0 0.731575C0 0.987841 0.207731 1.19557 0.463997 1.19557H2.01838C2.52288 1.20672 2.96711 1.53066 3.13199 2.00758L6.07837 10.8931L5.84639 11.4267C5.58764 12.0939 5.66535 12.8449 6.05519 13.4451C6.4413 14.0345 7.09086 14.3983 7.79519 14.4195H16.8199C17.0762 14.4195 17.2839 14.2117 17.2839 13.9555C17.2839 13.6992 17.0762 13.4915 16.8199 13.4915H7.79514C7.3974 13.4815 7.03127 13.2723 6.82074 12.9347C6.61257 12.6012 6.56981 12.1903 6.70476 11.8211L6.89037 11.4035L16.6575 10.3827C17.7303 10.2645 18.6129 9.48419 18.8615 8.43386L19.9751 3.77071C20.0253 3.63643 19.9986 3.4854 19.9054 3.37639ZM17.9567 8.22511C17.806 8.90123 17.232 9.39995 16.5415 9.45471L6.89037 10.4523L4.73278 3.90997L18.9543 4.11876L17.9567 8.22511Z" fill="#242424" stroke="#242424" stroke-width="0.1"/>
</g>
<defs>
<clipPath id="clip0">
<rect width="20" height="20" fill="white"/>
</clipPath>
</defs>
</svg>
